<?xml version="1.0" encoding="UTF-8" standalone="no" ?>
<!DOCTYPE svg PUBLIC "-//W3C//DTD SVG 1.1//EN" "http://www.w3.org/Graphics/SVG/1.1/DTD/svg11.dtd">
<svg xmlns="http://www.w3.org/2000/svg" xmlns:xlink="http://www.w3.org/1999/xlink" version="1.1" width="1080" height="300" viewBox="0 0 1080 300" xml:space="preserve">
<desc>Created with Fabric.js 5.2.4</desc>
<defs>
</defs>
<g transform="matrix(Infinity NaN NaN Infinity 0 0)" id="2ef458cc-2116-4751-a918-9318327eed8d"  >
</g>
<g transform="matrix(1 0 0 1 540 150)" id="63166f97-cffb-48c2-9f7f-6b66c7efd115"  >
<rect style="stroke: none; stroke-width: 1; stroke-dasharray: none; stroke-linecap: butt; stroke-dashoffset: 0; stroke-linejoin: miter; stroke-miterlimit: 4; fill: rgb(255,255,255); fill-rule: nonzero; opacity: 1; visibility: hidden;" vector-effect="non-scaling-stroke"  x="-540" y="-150" rx="0" ry="0" width="1080" height="300" />
</g>
<g transform="matrix(2.17 0 0 2.17 540 150)"  >
<g style="" vector-effect="non-scaling-stroke"   >
		<g transform="matrix(1.33 0 0 1.33 -0.61 -0.15)" clip-path="url(#CLIPPATH_5)"  >
<clipPath id="CLIPPATH_5" >
	<rect transform="matrix(1 0 0 1 0 -0.08)" id="4.157e+67" clip-path="url(#undefined)" x="-187.5" y="-50.5" rx="0" ry="0" width="375" height="101" />
</clipPath>
<path style="stroke: none; stroke-width: 1; stroke-dasharray: none; stroke-linecap: butt; stroke-dashoffset: 0; stroke-linejoin: miter; stroke-miterlimit: 4; fill: rgb(22,22,21); fill-rule: evenodd; opacity: 1;" vector-effect="non-scaling-stroke"  transform=" translate(-187.5, -50.58)" d="M 3.683594 4.390625 L 371.316406 4.390625 L 371.316406 96.765625 L 3.683594 96.765625 Z M 3.683594 4.390625" stroke-linecap="round" />
</g>
		<g transform="matrix(1.33 0 0 1.33 -0.61 -0.15)" clip-path="url(#CLIPPATH_6)"  >
<clipPath id="CLIPPATH_6" >
	<rect transform="matrix(1 0 0 1 0 -0.08)" id="8840" clip-path="url(#undefined)" x="-187.5" y="-50.5" rx="0" ry="0" width="375" height="101" />
</clipPath>
<path style="stroke: none; stroke-width: 1; stroke-dasharray: none; stroke-linecap: butt; stroke-dashoffset: 0; stroke-linejoin: miter; stroke-miterlimit: 4; fill: rgb(22,22,21); fill-rule: evenodd; opacity: 1;" vector-effect="non-scaling-stroke"  transform=" translate(-187.5, -50.58)" d="M 3.683594 4.390625 L 371.316406 4.390625 L 371.316406 96.765625 L 3.683594 96.765625 Z M 3.683594 4.390625" stroke-linecap="round" />
</g>
		<g transform="matrix(0.89 0 0 0.89 -0.79 -0.29)" clip-path="url(#CLIPPATH_7)"  >
<clipPath id="CLIPPATH_7" >
	<rect transform="matrix(1.49 0 0 1.49 -0.63 -0.16)" id="419523341" clip-path="url(#undefined)" x="-187.5" y="-50.5" rx="0" ry="0" width="375" height="101" />
</clipPath>
<path style="stroke: rgb(23,22,21); stroke-width: 1; stroke-dasharray: none; stroke-linecap: butt; stroke-dashoffset: 0; stroke-linejoin: miter; stroke-miterlimit: 10; fill: none; fill-rule: nonzero; opacity: 1;" vector-effect="non-scaling-stroke"  transform=" translate(-280, -74.36)" d="M 5.500827 5.497705 L 554.499211 5.497705 L 554.499211 143.231384 L 5.500827 143.231384 Z M 5.500827 5.497705" stroke-linecap="round" />
</g>
		<g transform="matrix(0.89 0 0 0.89 -0.79 -0.29)" clip-path="url(#CLIPPATH_8)"  >
<clipPath id="CLIPPATH_8" >
	<rect transform="matrix(1.49 0 0 1.49 -0.63 -0.16)" id="1" clip-path="url(#undefined)" x="-187.5" y="-50.5" rx="0" ry="0" width="375" height="101" />
</clipPath>
<path style="stroke: rgb(23,22,21); stroke-width: 1; stroke-dasharray: none; stroke-linecap: butt; stroke-dashoffset: 0; stroke-linejoin: miter; stroke-miterlimit: 10; fill: none; fill-rule: nonzero; opacity: 1;" vector-effect="non-scaling-stroke"  transform=" translate(-280, -74.36)" d="M 5.500827 5.497705 L 554.499211 5.497705 L 554.499211 143.231384 L 5.500827 143.231384 Z M 5.500827 5.497705" stroke-linecap="round" />
</g>
		<g transform="matrix(1.33 0 0 1.33 -176.68 -13.01)" clip-path="url(#CLIPPATH_9)"  >
<clipPath id="CLIPPATH_9" >
	<rect transform="matrix(1 0 0 1 132.45 9.62)" id="b92fe16203" clip-path="url(#undefined)" x="-187.5" y="-50.5" rx="0" ry="0" width="375" height="101" />
</clipPath>
<path style="stroke: none; stroke-width: 1; stroke-dasharray: none; stroke-linecap: butt; stroke-dashoffset: 0; stroke-linejoin: miter; stroke-miterlimit: 4; fill: rgb(255,255,255); fill-rule: evenodd; opacity: 1;" vector-effect="non-scaling-stroke"  transform=" translate(-55.05, -40.88)" d="M 33.199219 63.527344 C 33.085938 48.429688 32.964844 33.324219 32.851562 18.222656 L 58.792969 18.222656 C 66.335938 18.570312 73.773438 22.246094 74.589844 28.507812 C 74.617188 34.453125 68.652344 36.90625 62.71875 38.917969 C 70.507812 40.84375 76.855469 43.808594 77.242188 51.105469 C 76.472656 59.058594 68.214844 62.789062 57.414062 63.527344 Z M 46.230469 23.902344 L 54.300781 23.902344 C 57.722656 23.902344 60.527344 26.773438 60.527344 30.285156 C 60.527344 33.800781 57.730469 36.671875 54.300781 36.671875 L 46.230469 36.671875 Z M 46.230469 42.828125 L 55.875 42.828125 C 59.964844 42.828125 63.316406 46.15625 63.316406 50.21875 C 63.316406 54.285156 59.964844 57.609375 55.875 57.609375 L 46.230469 57.609375 Z M 46.230469 42.828125" stroke-linecap="round" />
</g>
		<g transform="matrix(1.33 0 0 1.33 -176.68 -13.01)" clip-path="url(#CLIPPATH_10)"  >
<clipPath id="CLIPPATH_10" >
	<rect transform="matrix(1 0 0 1 132.45 9.62)" id="8" clip-path="url(#undefined)" x="-187.5" y="-50.5" rx="0" ry="0" width="375" height="101" />
</clipPath>
<path style="stroke: none; stroke-width: 1; stroke-dasharray: none; stroke-linecap: butt; stroke-dashoffset: 0; stroke-linejoin: miter; stroke-miterlimit: 4; fill: rgb(255,255,255); fill-rule: evenodd; opacity: 1;" vector-effect="non-scaling-stroke"  transform=" translate(-55.05, -40.88)" d="M 33.199219 63.527344 C 33.085938 48.429688 32.964844 33.324219 32.851562 18.222656 L 58.792969 18.222656 C 66.335938 18.570312 73.773438 22.246094 74.589844 28.507812 C 74.617188 34.453125 68.652344 36.90625 62.71875 38.917969 C 70.507812 40.84375 76.855469 43.808594 77.242188 51.105469 C 76.472656 59.058594 68.214844 62.789062 57.414062 63.527344 Z M 46.230469 23.902344 L 54.300781 23.902344 C 57.722656 23.902344 60.527344 26.773438 60.527344 30.285156 C 60.527344 33.800781 57.730469 36.671875 54.300781 36.671875 L 46.230469 36.671875 Z M 46.230469 42.828125 L 55.875 42.828125 C 59.964844 42.828125 63.316406 46.15625 63.316406 50.21875 C 63.316406 54.285156 59.964844 57.609375 55.875 57.609375 L 46.230469 57.609375 Z M 46.230469 42.828125" stroke-linecap="round" />
</g>
		<g transform="matrix(1.33 0 0 1.33 -106.91 -8.32)" clip-path="url(#CLIPPATH_11)"  >
<clipPath id="CLIPPATH_11" >
	<rect transform="matrix(1 0 0 1 80.12 6.11)" id="743" clip-path="url(#undefined)" x="-187.5" y="-50.5" rx="0" ry="0" width="375" height="101" />
</clipPath>
<path style="stroke: none; stroke-width: 1; stroke-dasharray: none; stroke-linecap: butt; stroke-dashoffset: 0; stroke-linejoin: miter; stroke-miterlimit: 4; fill: rgb(255,255,255); fill-rule: evenodd; opacity: 1;" vector-effect="non-scaling-stroke"  transform=" translate(-107.38, -44.39)" d="M 126.253906 31.226562 C 117.757812 22.238281 99.152344 21.976562 90.113281 30.589844 C 78.027344 42.109375 82.96875 64.71875 106.988281 64.472656 C 113.503906 64.144531 119.269531 62.695312 123.535156 59.496094 C 132.09375 53.082031 133.648438 39.039062 126.253906 31.21875 M 107.378906 31.234375 C 112.640625 31.234375 116.945312 35.652344 116.945312 41.050781 L 116.945312 48.625 C 116.945312 54.023438 112.640625 58.441406 107.378906 58.441406 C 102.113281 58.441406 97.808594 54.023438 97.808594 48.625 L 97.808594 41.050781 C 97.808594 35.652344 102.113281 31.234375 107.378906 31.234375" stroke-linecap="round" />
</g>
		<g transform="matrix(1.33 0 0 1.33 -106.91 -8.32)" clip-path="url(#CLIPPATH_12)"  >
<clipPath id="CLIPPATH_12" >
	<rect transform="matrix(1 0 0 1 80.12 6.11)" id="8.944e+102" clip-path="url(#undefined)" x="-187.5" y="-50.5" rx="0" ry="0" width="375" height="101" />
</clipPath>
<path style="stroke: none; stroke-width: 1; stroke-dasharray: none; stroke-linecap: butt; stroke-dashoffset: 0; stroke-linejoin: miter; stroke-miterlimit: 4; fill: rgb(255,255,255); fill-rule: evenodd; opacity: 1;" vector-effect="non-scaling-stroke"  transform=" translate(-107.38, -44.39)" d="M 126.253906 31.226562 C 117.757812 22.238281 99.152344 21.976562 90.113281 30.589844 C 78.027344 42.109375 82.96875 64.71875 106.988281 64.472656 C 113.503906 64.144531 119.269531 62.695312 123.535156 59.496094 C 132.09375 53.082031 133.648438 39.039062 126.253906 31.21875 M 107.378906 31.234375 C 112.640625 31.234375 116.945312 35.652344 116.945312 41.050781 L 116.945312 48.625 C 116.945312 54.023438 112.640625 58.441406 107.378906 58.441406 C 102.113281 58.441406 97.808594 54.023438 97.808594 48.625 L 97.808594 41.050781 C 97.808594 35.652344 102.113281 31.234375 107.378906 31.234375" stroke-linecap="round" />
</g>
		<g transform="matrix(1.33 0 0 1.33 -34.58 -9.2)" clip-path="url(#CLIPPATH_13)"  >
<clipPath id="CLIPPATH_13" >
	<rect transform="matrix(1 0 0 1 25.88 6.77)" id="3" clip-path="url(#undefined)" x="-187.5" y="-50.5" rx="0" ry="0" width="375" height="101" />
</clipPath>
<path style="stroke: none; stroke-width: 1; stroke-dasharray: none; stroke-linecap: butt; stroke-dashoffset: 0; stroke-linejoin: miter; stroke-miterlimit: 4; fill: rgb(255,255,255); fill-rule: evenodd; opacity: 1;" vector-effect="non-scaling-stroke"  transform=" translate(-161.62, -43.73)" d="M 138.808594 24.96875 L 152.53125 24.96875 L 152.53125 41.441406 C 156.496094 34.3125 161.054688 27.324219 168.648438 24.640625 C 177.75 22.378906 183.714844 26.230469 183.910156 33.105469 C 184.085938 43.222656 184.253906 53.34375 184.425781 63.464844 L 170.402344 63.464844 L 170.402344 38.082031 C 170.316406 34.285156 167.203125 33.371094 163.742188 35.539062 C 160.183594 37.765625 155.457031 46.277344 152.539062 52.042969 L 152.539062 63.472656 L 138.808594 63.472656 Z M 138.808594 24.96875" stroke-linecap="round" />
</g>
		<g transform="matrix(1.33 0 0 1.33 -34.58 -9.2)" clip-path="url(#CLIPPATH_14)"  >
<clipPath id="CLIPPATH_14" >
	<rect transform="matrix(1 0 0 1 25.88 6.77)" id="aa36cb70e6" clip-path="url(#undefined)" x="-187.5" y="-50.5" rx="0" ry="0" width="375" height="101" />
</clipPath>
<path style="stroke: none; stroke-width: 1; stroke-dasharray: none; stroke-linecap: butt; stroke-dashoffset: 0; stroke-linejoin: miter; stroke-miterlimit: 4; fill: rgb(255,255,255); fill-rule: evenodd; opacity: 1;" vector-effect="non-scaling-stroke"  transform=" translate(-161.62, -43.73)" d="M 138.808594 24.96875 L 152.53125 24.96875 L 152.53125 41.441406 C 156.496094 34.3125 161.054688 27.324219 168.648438 24.640625 C 177.75 22.378906 183.714844 26.230469 183.910156 33.105469 C 184.085938 43.222656 184.253906 53.34375 184.425781 63.464844 L 170.402344 63.464844 L 170.402344 38.082031 C 170.316406 34.285156 167.203125 33.371094 163.742188 35.539062 C 160.183594 37.765625 155.457031 46.277344 152.539062 52.042969 L 152.539062 63.472656 L 138.808594 63.472656 Z M 138.808594 24.96875" stroke-linecap="round" />
</g>
		<g transform="matrix(1.33 0 0 1.33 34.73 -13.97)" clip-path="url(#CLIPPATH_15)"  >
<clipPath id="CLIPPATH_15" >
	<rect transform="matrix(1 0 0 1 -26.09 10.35)" id="4096" clip-path="url(#undefined)" x="-187.5" y="-50.5" rx="0" ry="0" width="375" height="101" />
</clipPath>
<path style="stroke: none; stroke-width: 1; stroke-dasharray: none; stroke-linecap: butt; stroke-dashoffset: 0; stroke-linejoin: miter; stroke-miterlimit: 4; fill: rgb(255,255,255); fill-rule: evenodd; opacity: 1;" vector-effect="non-scaling-stroke"  transform=" translate(-213.59, -40.15)" d="M 208.558594 17.34375 C 217.648438 15.707031 226.769531 17.832031 231.554688 19.261719 L 231.554688 26.867188 C 226.066406 22.6875 217.210938 20.882812 211.753906 22.632812 C 206.0625 24.957031 206.378906 30.1875 212.0625 32.894531 C 219.636719 37.410156 232.554688 42.164062 233.671875 50.117188 C 234 55.378906 229.554688 60.039062 223.507812 62.089844 C 215.804688 64.761719 204.082031 63.265625 193.5 61.675781 L 193.5 53.742188 C 198.984375 55.332031 204.253906 56.578125 208.960938 56.925781 C 217.394531 57.542969 223.304688 52.460938 216.808594 47.289062 C 211.230469 43.613281 202.089844 40.609375 197.726562 36.398438 C 190.441406 29.367188 195.5625 19.722656 208.558594 17.351562" stroke-linecap="round" />
</g>
		<g transform="matrix(1.33 0 0 1.33 34.73 -13.97)" clip-path="url(#CLIPPATH_16)"  >
<clipPath id="CLIPPATH_16" >
	<rect transform="matrix(1 0 0 1 -26.09 10.35)" id="a987aa627c" clip-path="url(#undefined)" x="-187.5" y="-50.5" rx="0" ry="0" width="375" height="101" />
</clipPath>
<path style="stroke: none; stroke-width: 1; stroke-dasharray: none; stroke-linecap: butt; stroke-dashoffset: 0; stroke-linejoin: miter; stroke-miterlimit: 4; fill: rgb(255,255,255); fill-rule: evenodd; opacity: 1;" vector-effect="non-scaling-stroke"  transform=" translate(-213.59, -40.15)" d="M 208.558594 17.34375 C 217.648438 15.707031 226.769531 17.832031 231.554688 19.261719 L 231.554688 26.867188 C 226.066406 22.6875 217.210938 20.882812 211.753906 22.632812 C 206.0625 24.957031 206.378906 30.1875 212.0625 32.894531 C 219.636719 37.410156 232.554688 42.164062 233.671875 50.117188 C 234 55.378906 229.554688 60.039062 223.507812 62.089844 C 215.804688 64.761719 204.082031 63.265625 193.5 61.675781 L 193.5 53.742188 C 198.984375 55.332031 204.253906 56.578125 208.960938 56.925781 C 217.394531 57.542969 223.304688 52.460938 216.808594 47.289062 C 211.230469 43.613281 202.089844 40.609375 197.726562 36.398438 C 190.441406 29.367188 195.5625 19.722656 208.558594 17.351562" stroke-linecap="round" />
</g>
		<g transform="matrix(1.33 0 0 1.33 102.38 -8.32)" clip-path="url(#CLIPPATH_17)"  >
<clipPath id="CLIPPATH_17" >
	<rect transform="matrix(1 0 0 1 -76.84 6.11)" id="347" clip-path="url(#undefined)" x="-187.5" y="-50.5" rx="0" ry="0" width="375" height="101" />
</clipPath>
<path style="stroke: none; stroke-width: 1; stroke-dasharray: none; stroke-linecap: butt; stroke-dashoffset: 0; stroke-linejoin: miter; stroke-miterlimit: 4; fill: rgb(227,0,14); fill-rule: evenodd; opacity: 1;" vector-effect="non-scaling-stroke"  transform=" translate(-264.34, -44.39)" d="M 283.21875 31.226562 C 274.722656 22.238281 256.117188 21.976562 247.078125 30.589844 C 234.992188 42.109375 239.933594 64.71875 263.953125 64.472656 C 270.46875 64.144531 276.234375 62.695312 280.5 59.496094 C 289.058594 53.082031 290.613281 39.039062 283.21875 31.21875 M 264.339844 31.234375 C 269.605469 31.234375 273.910156 35.652344 273.910156 41.050781 L 273.910156 48.625 C 273.910156 54.023438 269.605469 58.441406 264.339844 58.441406 C 259.078125 58.441406 254.773438 54.023438 254.773438 48.625 L 254.773438 41.050781 C 254.773438 35.652344 259.078125 31.234375 264.339844 31.234375" stroke-linecap="round" />
</g>
		<g transform="matrix(1.33 0 0 1.33 102.38 -8.32)" clip-path="url(#CLIPPATH_18)"  >
<clipPath id="CLIPPATH_18" >
	<rect transform="matrix(1 0 0 1 -76.84 6.11)" id="dbde18c742" clip-path="url(#undefined)" x="-187.5" y="-50.5" rx="0" ry="0" width="375" height="101" />
</clipPath>
<path style="stroke: none; stroke-width: 1; stroke-dasharray: none; stroke-linecap: butt; stroke-dashoffset: 0; stroke-linejoin: miter; stroke-miterlimit: 4; fill: rgb(227,0,14); fill-rule: evenodd; opacity: 1;" vector-effect="non-scaling-stroke"  transform=" translate(-264.34, -44.39)" d="M 283.21875 31.226562 C 274.722656 22.238281 256.117188 21.976562 247.078125 30.589844 C 234.992188 42.109375 239.933594 64.71875 263.953125 64.472656 C 270.46875 64.144531 276.234375 62.695312 280.5 59.496094 C 289.058594 53.082031 290.613281 39.039062 283.21875 31.21875 M 264.339844 31.234375 C 269.605469 31.234375 273.910156 35.652344 273.910156 41.050781 L 273.910156 48.625 C 273.910156 54.023438 269.605469 58.441406 264.339844 58.441406 C 259.078125 58.441406 254.773438 54.023438 254.773438 48.625 L 254.773438 41.050781 C 254.773438 35.652344 259.078125 31.234375 264.339844 31.234375" stroke-linecap="round" />
</g>
		<g transform="matrix(0.89 0 0 0.89 102.36 -8.38)" clip-path="url(#CLIPPATH_19)"  >
<clipPath id="CLIPPATH_19" >
	<rect transform="matrix(1.49 0 0 1.49 -115.38 9.06)" id="98" clip-path="url(#undefined)" x="-187.5" y="-50.5" rx="0" ry="0" width="375" height="101" />
</clipPath>
<path style="stroke: rgb(227,0,14); stroke-width: 1; stroke-dasharray: none; stroke-linecap: butt; stroke-dashoffset: 0; stroke-linejoin: miter; stroke-miterlimit: 2.61; fill: none; fill-rule: nonzero; opacity: 1;" vector-effect="non-scaling-stroke"  transform=" translate(-394.75, -65.14)" d="M 422.940032 45.51083 C 410.252531 32.109054 382.468362 31.718824 368.970027 44.561464 C 350.921692 61.737404 358.300859 95.448607 394.170029 95.081675 C 403.90003 94.592431 412.510031 92.431606 418.880032 87.661483 C 431.660866 78.097938 433.982533 57.159483 422.940032 45.499181 Z M 394.747529 45.528303 C 402.610863 45.528303 409.039197 52.121441 409.039197 60.17066 L 409.039197 71.452381 C 409.039197 79.501601 402.610863 86.088914 394.747529 86.088914 C 386.890029 86.088914 380.461695 79.501601 380.461695 71.452381 L 380.461695 60.159012 C 380.461695 52.109792 386.890029 45.522478 394.747529 45.522478" stroke-linecap="round" />
</g>
		<g transform="matrix(0.89 0 0 0.89 102.36 -8.38)" clip-path="url(#CLIPPATH_20)"  >
<clipPath id="CLIPPATH_20" >
	<rect transform="matrix(1.49 0 0 1.49 -115.38 9.06)" id="35" clip-path="url(#undefined)" x="-187.5" y="-50.5" rx="0" ry="0" width="375" height="101" />
</clipPath>
<path style="stroke: rgb(227,0,14); stroke-width: 1; stroke-dasharray: none; stroke-linecap: butt; stroke-dashoffset: 0; stroke-linejoin: miter; stroke-miterlimit: 2.61; fill: none; fill-rule: nonzero; opacity: 1;" vector-effect="non-scaling-stroke"  transform=" translate(-394.75, -65.14)" d="M 422.940032 45.51083 C 410.252531 32.109054 382.468362 31.718824 368.970027 44.561464 C 350.921692 61.737404 358.300859 95.448607 394.170029 95.081675 C 403.90003 94.592431 412.510031 92.431606 418.880032 87.661483 C 431.660866 78.097938 433.982533 57.159483 422.940032 45.499181 Z M 394.747529 45.528303 C 402.610863 45.528303 409.039197 52.121441 409.039197 60.17066 L 409.039197 71.452381 C 409.039197 79.501601 402.610863 86.088914 394.747529 86.088914 C 386.890029 86.088914 380.461695 79.501601 380.461695 71.452381 L 380.461695 60.159012 C 380.461695 52.109792 386.890029 45.522478 394.747529 45.522478" stroke-linecap="round" />
</g>
		<g transform="matrix(1.33 0 0 1.33 175.53 -9.2)" clip-path="url(#CLIPPATH_21)"  >
<clipPath id="CLIPPATH_21" >
	<rect transform="matrix(1 0 0 1 -131.7 6.77)" clip-path="url(#undefined)" x="-187.5" y="-50.5" rx="0" ry="0" width="375" height="101" />
</clipPath>
<path style="stroke: none; stroke-width: 1; stroke-dasharray: none; stroke-linecap: butt; stroke-dashoffset: 0; stroke-linejoin: miter; stroke-miterlimit: 4; fill: rgb(255,255,255); fill-rule: evenodd; opacity: 1;" vector-effect="non-scaling-stroke"  transform=" translate(-319.2, -43.73)" d="M 296.390625 24.96875 L 310.113281 24.96875 L 310.113281 41.441406 C 314.070312 34.3125 318.636719 27.324219 326.230469 24.640625 C 335.332031 22.378906 341.296875 26.230469 341.492188 33.105469 C 341.664062 43.222656 341.832031 53.34375 342.007812 63.464844 L 327.984375 63.464844 L 327.984375 38.082031 C 327.898438 34.285156 324.785156 33.371094 321.320312 35.539062 C 317.765625 37.765625 313.042969 46.277344 310.117188 52.042969 L 310.117188 63.472656 L 296.390625 63.472656 Z M 296.390625 24.96875" stroke-linecap="round" />
</g>
		<g transform="matrix(1.33 0 0 1.33 175.53 -9.2)" clip-path="url(#CLIPPATH_22)"  >
<clipPath id="CLIPPATH_22" >
	<rect transform="matrix(1 0 0 1 -131.7 6.77)" id="ba6b760534" clip-path="url(#undefined)" x="-187.5" y="-50.5" rx="0" ry="0" width="375" height="101" />
</clipPath>
<path style="stroke: none; stroke-width: 1; stroke-dasharray: none; stroke-linecap: butt; stroke-dashoffset: 0; stroke-linejoin: miter; stroke-miterlimit: 4; fill: rgb(255,255,255); fill-rule: evenodd; opacity: 1;" vector-effect="non-scaling-stroke"  transform=" translate(-319.2, -43.73)" d="M 296.390625 24.96875 L 310.113281 24.96875 L 310.113281 41.441406 C 314.070312 34.3125 318.636719 27.324219 326.230469 24.640625 C 335.332031 22.378906 341.296875 26.230469 341.492188 33.105469 C 341.664062 43.222656 341.832031 53.34375 342.007812 63.464844 L 327.984375 63.464844 L 327.984375 38.082031 C 327.898438 34.285156 324.785156 33.371094 321.320312 35.539062 C 317.765625 37.765625 313.042969 46.277344 310.117188 52.042969 L 310.117188 63.472656 L 296.390625 63.472656 Z M 296.390625 24.96875" stroke-linecap="round" />
</g>
		<g transform="matrix(1.33 0 0 1.33 206.71 -44.99)" clip-path="url(#CLIPPATH_23)"  >
<clipPath id="CLIPPATH_23" >
	<rect transform="matrix(1 0 0 1 -155.05 33.65)" id="39" clip-path="url(#undefined)" x="-187.5" y="-50.5" rx="0" ry="0" width="375" height="101" />
</clipPath>
<path style="stroke: none; stroke-width: 1; stroke-dasharray: none; stroke-linecap: butt; stroke-dashoffset: 0; stroke-linejoin: miter; stroke-miterlimit: 4; fill: rgb(255,255,255); fill-rule: nonzero; opacity: 1;" vector-effect="non-scaling-stroke"  transform=" translate(-342.55, -16.85)" d="M 342.550781 10.460938 C 343.621094 10.460938 344.644531 10.738281 345.621094 11.285156 C 346.601562 11.835938 347.378906 12.621094 347.941406 13.640625 C 348.503906 14.660156 348.785156 15.734375 348.785156 16.851562 C 348.785156 17.972656 348.507812 19.027344 347.960938 20.039062 C 347.410156 21.050781 346.640625 21.835938 345.65625 22.398438 C 344.671875 22.964844 343.632812 23.246094 342.550781 23.246094 C 341.464844 23.246094 340.433594 22.964844 339.441406 22.398438 C 338.449219 21.835938 337.695312 21.046875 337.136719 20.039062 C 336.582031 19.03125 336.316406 17.964844 336.316406 16.851562 C 336.316406 15.738281 336.597656 14.660156 337.160156 13.640625 C 337.722656 12.621094 338.492188 11.828125 339.476562 11.285156 C 340.460938 10.742188 341.476562 10.460938 342.550781 10.460938 M 342.554688 11.730469 C 341.699219 11.730469 340.875 11.949219 340.089844 12.386719 C 339.308594 12.824219 338.683594 13.453125 338.230469 14.277344 C 337.773438 15.101562 337.546875 15.960938 337.546875 16.859375 C 337.546875 17.757812 337.769531 18.609375 338.210938 19.421875 C 338.652344 20.234375 339.269531 20.863281 340.058594 21.320312 C 340.847656 21.777344 341.679688 22.003906 342.550781 22.003906 C 343.417969 22.003906 344.25 21.777344 345.039062 21.320312 C 345.832031 20.863281 346.445312 20.234375 346.894531 19.421875 C 347.34375 18.609375 347.566406 17.757812 347.566406 16.859375 C 347.566406 15.960938 347.335938 15.097656 346.882812 14.277344 C 346.425781 13.460938 345.808594 12.824219 345.019531 12.386719 C 344.230469 11.949219 343.40625 11.730469 342.550781 11.730469 M 339.730469 20.28125 L 339.730469 13.507812 L 341.070312 13.507812 C 342.328125 13.507812 343.03125 13.511719 343.179688 13.527344 C 343.621094 13.558594 343.96875 13.652344 344.214844 13.796875 C 344.464844 13.9375 344.664062 14.152344 344.832031 14.445312 C 345 14.742188 345.082031 15.0625 345.082031 15.410156 C 345.082031 15.902344 344.925781 16.316406 344.613281 16.664062 C 344.296875 17.015625 343.863281 17.230469 343.304688 17.308594 C 343.507812 17.382812 343.660156 17.46875 343.769531 17.5625 C 343.875 17.65625 344.027344 17.832031 344.214844 18.082031 C 344.269531 18.148438 344.429688 18.421875 344.707031 18.90625 L 345.480469 20.273438 L 343.816406 20.273438 L 343.265625 19.175781 C 342.898438 18.4375 342.589844 17.964844 342.347656 17.777344 C 342.105469 17.589844 341.800781 17.492188 341.425781 17.492188 L 341.074219 17.492188 L 341.074219 20.28125 Z M 341.082031 16.417969 L 341.625 16.417969 C 342.394531 16.417969 342.878906 16.382812 343.066406 16.324219 C 343.253906 16.261719 343.398438 16.15625 343.507812 16.007812 C 343.613281 15.859375 343.667969 15.6875 343.667969 15.492188 C 343.667969 15.304688 343.613281 15.136719 343.507812 14.996094 C 343.398438 14.855469 343.253906 14.746094 343.058594 14.679688 C 342.863281 14.613281 342.386719 14.585938 341.625 14.585938 L 341.082031 14.585938 Z M 341.082031 16.417969" stroke-linecap="round" />
</g>
		<g transform="matrix(1.33 0 0 1.33 206.71 -44.99)" clip-path="url(#CLIPPATH_24)"  >
<clipPath id="CLIPPATH_24" >
	<rect transform="matrix(1 0 0 1 -155.05 33.65)" id="91" clip-path="url(#undefined)" x="-187.5" y="-50.5" rx="0" ry="0" width="375" height="101" />
</clipPath>
<path style="stroke: none; stroke-width: 1; stroke-dasharray: none; stroke-linecap: butt; stroke-dashoffset: 0; stroke-linejoin: miter; stroke-miterlimit: 4; fill: rgb(255,255,255); fill-rule: nonzero; opacity: 1;" vector-effect="non-scaling-stroke"  transform=" translate(-342.55, -16.85)" d="M 342.550781 10.460938 C 343.621094 10.460938 344.644531 10.738281 345.621094 11.285156 C 346.601562 11.835938 347.378906 12.621094 347.941406 13.640625 C 348.503906 14.660156 348.785156 15.734375 348.785156 16.851562 C 348.785156 17.972656 348.507812 19.027344 347.960938 20.039062 C 347.410156 21.050781 346.640625 21.835938 345.65625 22.398438 C 344.671875 22.964844 343.632812 23.246094 342.550781 23.246094 C 341.464844 23.246094 340.433594 22.964844 339.441406 22.398438 C 338.449219 21.835938 337.695312 21.046875 337.136719 20.039062 C 336.582031 19.03125 336.316406 17.964844 336.316406 16.851562 C 336.316406 15.738281 336.597656 14.660156 337.160156 13.640625 C 337.722656 12.621094 338.492188 11.828125 339.476562 11.285156 C 340.460938 10.742188 341.476562 10.460938 342.550781 10.460938 M 342.554688 11.730469 C 341.699219 11.730469 340.875 11.949219 340.089844 12.386719 C 339.308594 12.824219 338.683594 13.453125 338.230469 14.277344 C 337.773438 15.101562 337.546875 15.960938 337.546875 16.859375 C 337.546875 17.757812 337.769531 18.609375 338.210938 19.421875 C 338.652344 20.234375 339.269531 20.863281 340.058594 21.320312 C 340.847656 21.777344 341.679688 22.003906 342.550781 22.003906 C 343.417969 22.003906 344.25 21.777344 345.039062 21.320312 C 345.832031 20.863281 346.445312 20.234375 346.894531 19.421875 C 347.34375 18.609375 347.566406 17.757812 347.566406 16.859375 C 347.566406 15.960938 347.335938 15.097656 346.882812 14.277344 C 346.425781 13.460938 345.808594 12.824219 345.019531 12.386719 C 344.230469 11.949219 343.40625 11.730469 342.550781 11.730469 M 339.730469 20.28125 L 339.730469 13.507812 L 341.070312 13.507812 C 342.328125 13.507812 343.03125 13.511719 343.179688 13.527344 C 343.621094 13.558594 343.96875 13.652344 344.214844 13.796875 C 344.464844 13.9375 344.664062 14.152344 344.832031 14.445312 C 345 14.742188 345.082031 15.0625 345.082031 15.410156 C 345.082031 15.902344 344.925781 16.316406 344.613281 16.664062 C 344.296875 17.015625 343.863281 17.230469 343.304688 17.308594 C 343.507812 17.382812 343.660156 17.46875 343.769531 17.5625 C 343.875 17.65625 344.027344 17.832031 344.214844 18.082031 C 344.269531 18.148438 344.429688 18.421875 344.707031 18.90625 L 345.480469 20.273438 L 343.816406 20.273438 L 343.265625 19.175781 C 342.898438 18.4375 342.589844 17.964844 342.347656 17.777344 C 342.105469 17.589844 341.800781 17.492188 341.425781 17.492188 L 341.074219 17.492188 L 341.074219 20.28125 Z M 341.082031 16.417969 L 341.625 16.417969 C 342.394531 16.417969 342.878906 16.382812 343.066406 16.324219 C 343.253906 16.261719 343.398438 16.15625 343.507812 16.007812 C 343.613281 15.859375 343.667969 15.6875 343.667969 15.492188 C 343.667969 15.304688 343.613281 15.136719 343.507812 14.996094 C 343.398438 14.855469 343.253906 14.746094 343.058594 14.679688 C 342.863281 14.613281 342.386719 14.585938 341.625 14.585938 L 341.082031 14.585938 Z M 341.082031 16.417969" stroke-linecap="round" />
</g>
		<g transform="matrix(1.33 0 0 1.33 -196.71 36.85)" clip-path="url(#CLIPPATH_25)"  >
<clipPath id="CLIPPATH_25" >
	<rect transform="matrix(1 0 0 1 147.52 -27.73)" id="782" clip-path="url(#undefined)" x="-187.5" y="-50.5" rx="0" ry="0" width="375" height="101" />
</clipPath>
<path style="stroke: none; stroke-width: 1; stroke-dasharray: none; stroke-linecap: butt; stroke-dashoffset: 0; stroke-linejoin: miter; stroke-miterlimit: 4; fill: rgb(255,255,255); fill-rule: nonzero; opacity: 1;" vector-effect="non-scaling-stroke"  transform=" translate(-39.98, -78.23)" d="M 34.113281 84.765625 L 34.113281 71.6875 L 36.5625 71.6875 L 39.476562 80.945312 C 39.742188 81.800781 39.9375 82.453125 40.066406 82.882812 C 40.207031 82.40625 40.425781 81.707031 40.722656 80.789062 L 43.667969 71.695312 L 45.855469 71.695312 L 45.855469 84.765625 L 44.296875 84.765625 L 44.296875 73.820312 L 40.714844 84.765625 L 39.242188 84.765625 L 35.679688 73.632812 L 35.679688 84.765625 Z M 34.113281 84.765625" stroke-linecap="round" />
</g>
		<g transform="matrix(1.33 0 0 1.33 -196.71 36.85)" clip-path="url(#CLIPPATH_26)"  >
<clipPath id="CLIPPATH_26" >
	<rect transform="matrix(1 0 0 1 147.52 -27.73)" clip-path="url(#undefined)" x="-187.5" y="-50.5" rx="0" ry="0" width="375" height="101" />
</clipPath>
<path style="stroke: none; stroke-width: 1; stroke-dasharray: none; stroke-linecap: butt; stroke-dashoffset: 0; stroke-linejoin: miter; stroke-miterlimit: 4; fill: rgb(255,255,255); fill-rule: nonzero; opacity: 1;" vector-effect="non-scaling-stroke"  transform=" translate(-39.98, -78.23)" d="M 34.113281 84.765625 L 34.113281 71.6875 L 36.5625 71.6875 L 39.476562 80.945312 C 39.742188 81.800781 39.9375 82.453125 40.066406 82.882812 C 40.207031 82.40625 40.425781 81.707031 40.722656 80.789062 L 43.667969 71.695312 L 45.855469 71.695312 L 45.855469 84.765625 L 44.296875 84.765625 L 44.296875 73.820312 L 40.714844 84.765625 L 39.242188 84.765625 L 35.679688 73.632812 L 35.679688 84.765625 Z M 34.113281 84.765625" stroke-linecap="round" />
</g>
		<g transform="matrix(1.33 0 0 1.33 -177.26 36.82)" clip-path="url(#CLIPPATH_27)"  >
<clipPath id="CLIPPATH_27" >
	<rect transform="matrix(1 0 0 1 132.93 -27.71)" id="24" clip-path="url(#undefined)" x="-187.5" y="-50.5" rx="0" ry="0" width="375" height="101" />
</clipPath>
<path style="stroke: none; stroke-width: 1; stroke-dasharray: none; stroke-linecap: butt; stroke-dashoffset: 0; stroke-linejoin: miter; stroke-miterlimit: 4; fill: rgb(255,255,255); fill-rule: nonzero; opacity: 1;" vector-effect="non-scaling-stroke"  transform=" translate(-54.57, -78.21)" d="M 50.363281 78.421875 C 50.363281 79.996094 50.765625 81.238281 51.5625 82.144531 C 52.359375 83.050781 53.355469 83.503906 54.570312 83.503906 C 55.792969 83.503906 56.804688 83.050781 57.597656 82.128906 C 58.386719 81.210938 58.78125 79.917969 58.78125 78.234375 C 58.78125 77.167969 58.613281 76.242188 58.273438 75.445312 C 57.929688 74.644531 57.441406 74.035156 56.785156 73.597656 C 56.128906 73.164062 55.398438 72.941406 54.589844 72.941406 C 53.4375 72.941406 52.445312 73.363281 51.609375 74.203125 C 50.773438 75.042969 50.363281 76.449219 50.363281 78.414062 M 48.683594 78.386719 C 48.683594 76.214844 49.230469 74.519531 50.332031 73.289062 C 51.429688 72.0625 52.839844 71.445312 54.582031 71.445312 C 55.722656 71.445312 56.746094 71.734375 57.65625 72.3125 C 58.566406 72.886719 59.261719 73.691406 59.746094 74.726562 C 60.226562 75.757812 60.460938 76.925781 60.460938 78.234375 C 60.460938 79.5625 60.207031 80.742188 59.707031 81.796875 C 59.203125 82.847656 58.488281 83.632812 57.5625 84.167969 C 56.636719 84.707031 55.640625 84.972656 54.570312 84.972656 C 53.410156 84.972656 52.371094 84.679688 51.460938 84.082031 C 50.550781 83.484375 49.855469 82.671875 49.386719 81.648438 C 48.917969 80.621094 48.675781 79.527344 48.675781 78.382812" stroke-linecap="round" />
</g>
		<g transform="matrix(1.33 0 0 1.33 -177.26 36.82)" clip-path="url(#CLIPPATH_28)"  >
<clipPath id="CLIPPATH_28" >
	<rect transform="matrix(1 0 0 1 132.93 -27.71)" id="23" clip-path="url(#undefined)" x="-187.5" y="-50.5" rx="0" ry="0" width="375" height="101" />
</clipPath>
<path style="stroke: none; stroke-width: 1; stroke-dasharray: none; stroke-linecap: butt; stroke-dashoffset: 0; stroke-linejoin: miter; stroke-miterlimit: 4; fill: rgb(255,255,255); fill-rule: nonzero; opacity: 1;" vector-effect="non-scaling-stroke"  transform=" translate(-54.57, -78.21)" d="M 50.363281 78.421875 C 50.363281 79.996094 50.765625 81.238281 51.5625 82.144531 C 52.359375 83.050781 53.355469 83.503906 54.570312 83.503906 C 55.792969 83.503906 56.804688 83.050781 57.597656 82.128906 C 58.386719 81.210938 58.78125 79.917969 58.78125 78.234375 C 58.78125 77.167969 58.613281 76.242188 58.273438 75.445312 C 57.929688 74.644531 57.441406 74.035156 56.785156 73.597656 C 56.128906 73.164062 55.398438 72.941406 54.589844 72.941406 C 53.4375 72.941406 52.445312 73.363281 51.609375 74.203125 C 50.773438 75.042969 50.363281 76.449219 50.363281 78.414062 M 48.683594 78.386719 C 48.683594 76.214844 49.230469 74.519531 50.332031 73.289062 C 51.429688 72.0625 52.839844 71.445312 54.582031 71.445312 C 55.722656 71.445312 56.746094 71.734375 57.65625 72.3125 C 58.566406 72.886719 59.261719 73.691406 59.746094 74.726562 C 60.226562 75.757812 60.460938 76.925781 60.460938 78.234375 C 60.460938 79.5625 60.207031 80.742188 59.707031 81.796875 C 59.203125 82.847656 58.488281 83.632812 57.5625 84.167969 C 56.636719 84.707031 55.640625 84.972656 54.570312 84.972656 C 53.410156 84.972656 52.371094 84.679688 51.460938 84.082031 C 50.550781 83.484375 49.855469 82.671875 49.386719 81.648438 C 48.917969 80.621094 48.675781 79.527344 48.675781 78.382812" stroke-linecap="round" />
</g>
		<g transform="matrix(1.33 0 0 1.33 -158.89 36.85)" clip-path="url(#CLIPPATH_29)"  >
<clipPath id="CLIPPATH_29" >
	<rect transform="matrix(1 0 0 1 119.16 -27.73)" id="68" clip-path="url(#undefined)" x="-187.5" y="-50.5" rx="0" ry="0" width="375" height="101" />
</clipPath>
<path style="stroke: none; stroke-width: 1; stroke-dasharray: none; stroke-linecap: butt; stroke-dashoffset: 0; stroke-linejoin: miter; stroke-miterlimit: 4; fill: rgb(255,255,255); fill-rule: nonzero; opacity: 1;" vector-effect="non-scaling-stroke"  transform=" translate(-68.34, -78.23)" d="M 64.882812 83.222656 L 67.511719 83.222656 C 68.324219 83.222656 68.960938 83.144531 69.421875 82.980469 C 69.882812 82.820312 70.253906 82.59375 70.527344 82.304688 C 70.914062 81.894531 71.214844 81.347656 71.429688 80.648438 C 71.644531 79.949219 71.753906 79.113281 71.753906 78.125 C 71.753906 76.757812 71.539062 75.707031 71.117188 74.972656 C 70.695312 74.242188 70.179688 73.746094 69.574219 73.5 C 69.140625 73.316406 68.429688 73.230469 67.464844 73.230469 L 64.882812 73.230469 Z M 63.253906 84.765625 L 63.253906 71.6875 L 67.492188 71.6875 C 68.449219 71.6875 69.179688 71.75 69.691406 71.875 C 70.394531 72.050781 70.996094 72.359375 71.492188 72.816406 C 72.140625 73.398438 72.628906 74.144531 72.949219 75.046875 C 73.273438 75.953125 73.433594 76.992188 73.433594 78.160156 C 73.433594 79.152344 73.324219 80.03125 73.105469 80.796875 C 72.882812 81.558594 72.601562 82.199219 72.261719 82.699219 C 71.917969 83.203125 71.542969 83.597656 71.144531 83.886719 C 70.742188 84.175781 70.246094 84.398438 69.675781 84.546875 C 69.105469 84.691406 68.445312 84.765625 67.699219 84.765625 Z M 63.253906 84.765625" stroke-linecap="round" />
</g>
		<g transform="matrix(1.33 0 0 1.33 -158.89 36.85)" clip-path="url(#CLIPPATH_30)"  >
<clipPath id="CLIPPATH_30" >
	<rect transform="matrix(1 0 0 1 119.16 -27.73)" id="20000" clip-path="url(#undefined)" x="-187.5" y="-50.5" rx="0" ry="0" width="375" height="101" />
</clipPath>
<path style="stroke: none; stroke-width: 1; stroke-dasharray: none; stroke-linecap: butt; stroke-dashoffset: 0; stroke-linejoin: miter; stroke-miterlimit: 4; fill: rgb(255,255,255); fill-rule: nonzero; opacity: 1;" vector-effect="non-scaling-stroke"  transform=" translate(-68.34, -78.23)" d="M 64.882812 83.222656 L 67.511719 83.222656 C 68.324219 83.222656 68.960938 83.144531 69.421875 82.980469 C 69.882812 82.820312 70.253906 82.59375 70.527344 82.304688 C 70.914062 81.894531 71.214844 81.347656 71.429688 80.648438 C 71.644531 79.949219 71.753906 79.113281 71.753906 78.125 C 71.753906 76.757812 71.539062 75.707031 71.117188 74.972656 C 70.695312 74.242188 70.179688 73.746094 69.574219 73.5 C 69.140625 73.316406 68.429688 73.230469 67.464844 73.230469 L 64.882812 73.230469 Z M 63.253906 84.765625 L 63.253906 71.6875 L 67.492188 71.6875 C 68.449219 71.6875 69.179688 71.75 69.691406 71.875 C 70.394531 72.050781 70.996094 72.359375 71.492188 72.816406 C 72.140625 73.398438 72.628906 74.144531 72.949219 75.046875 C 73.273438 75.953125 73.433594 76.992188 73.433594 78.160156 C 73.433594 79.152344 73.324219 80.03125 73.105469 80.796875 C 72.882812 81.558594 72.601562 82.199219 72.261719 82.699219 C 71.917969 83.203125 71.542969 83.597656 71.144531 83.886719 C 70.742188 84.175781 70.246094 84.398438 69.675781 84.546875 C 69.105469 84.691406 68.445312 84.765625 67.699219 84.765625 Z M 63.253906 84.765625" stroke-linecap="round" />
</g>
		<g transform="matrix(1.33 0 0 1.33 -142.03 36.85)" clip-path="url(#CLIPPATH_31)"  >
<clipPath id="CLIPPATH_31" >
	<rect transform="matrix(1 0 0 1 106.51 -27.73)" id="c93c865ded" clip-path="url(#undefined)" x="-187.5" y="-50.5" rx="0" ry="0" width="375" height="101" />
</clipPath>
<path style="stroke: none; stroke-width: 1; stroke-dasharray: none; stroke-linecap: butt; stroke-dashoffset: 0; stroke-linejoin: miter; stroke-miterlimit: 4; fill: rgb(255,255,255); fill-rule: nonzero; opacity: 1;" vector-effect="non-scaling-stroke"  transform=" translate(-80.99, -78.23)" d="M 76.398438 84.765625 L 76.398438 71.6875 L 85.304688 71.6875 L 85.304688 73.230469 L 78.027344 73.230469 L 78.027344 77.234375 L 84.84375 77.234375 L 84.84375 78.769531 L 78.027344 78.769531 L 78.027344 83.222656 L 85.585938 83.222656 L 85.585938 84.765625 Z M 76.398438 84.765625" stroke-linecap="round" />
</g>
		<g transform="matrix(1.33 0 0 1.33 -142.03 36.85)" clip-path="url(#CLIPPATH_32)"  >
<clipPath id="CLIPPATH_32" >
	<rect transform="matrix(1 0 0 1 106.51 -27.73)" id="c73a4e81db" clip-path="url(#undefined)" x="-187.5" y="-50.5" rx="0" ry="0" width="375" height="101" />
</clipPath>
<path style="stroke: none; stroke-width: 1; stroke-dasharray: none; stroke-linecap: butt; stroke-dashoffset: 0; stroke-linejoin: miter; stroke-miterlimit: 4; fill: rgb(255,255,255); fill-rule: nonzero; opacity: 1;" vector-effect="non-scaling-stroke"  transform=" translate(-80.99, -78.23)" d="M 76.398438 84.765625 L 76.398438 71.6875 L 85.304688 71.6875 L 85.304688 73.230469 L 78.027344 73.230469 L 78.027344 77.234375 L 84.84375 77.234375 L 84.84375 78.769531 L 78.027344 78.769531 L 78.027344 83.222656 L 85.585938 83.222656 L 85.585938 84.765625 Z M 76.398438 84.765625" stroke-linecap="round" />
</g>
		<g transform="matrix(1.33 0 0 1.33 -124.7 36.85)" clip-path="url(#CLIPPATH_33)"  >
<clipPath id="CLIPPATH_33" >
	<rect transform="matrix(1 0 0 1 93.52 -27.73)" id="8" clip-path="url(#undefined)" x="-187.5" y="-50.5" rx="0" ry="0" width="375" height="101" />
</clipPath>
<path style="stroke: none; stroke-width: 1; stroke-dasharray: none; stroke-linecap: butt; stroke-dashoffset: 0; stroke-linejoin: miter; stroke-miterlimit: 4; fill: rgb(255,255,255); fill-rule: nonzero; opacity: 1;" vector-effect="non-scaling-stroke"  transform=" translate(-93.98, -78.23)" d="M 90.1875 77.460938 L 93.691406 77.460938 C 94.433594 77.460938 95.015625 77.382812 95.4375 77.214844 C 95.859375 77.046875 96.175781 76.792969 96.394531 76.429688 C 96.617188 76.066406 96.722656 75.679688 96.722656 75.257812 C 96.722656 74.640625 96.507812 74.128906 96.085938 73.734375 C 95.664062 73.339844 94.996094 73.136719 94.085938 73.136719 L 90.1875 73.136719 Z M 88.558594 84.765625 L 88.558594 71.6875 L 94.019531 71.6875 C 95.117188 71.6875 95.953125 71.808594 96.523438 72.042969 C 97.089844 72.277344 97.546875 72.695312 97.886719 73.285156 C 98.230469 73.875 98.398438 74.539062 98.398438 75.257812 C 98.398438 76.179688 98.117188 76.964844 97.546875 77.601562 C 96.976562 78.242188 96.105469 78.644531 94.929688 78.816406 C 95.355469 79.039062 95.683594 79.253906 95.914062 79.46875 C 96.386719 79.929688 96.84375 80.515625 97.265625 81.210938 L 99.410156 84.765625 L 97.359375 84.765625 L 95.730469 82.042969 C 95.257812 81.257812 94.863281 80.65625 94.554688 80.238281 C 94.246094 79.824219 93.972656 79.527344 93.722656 79.367188 C 93.476562 79.207031 93.226562 79.085938 92.980469 79.019531 C 92.792969 78.976562 92.492188 78.957031 92.074219 78.957031 L 90.1875 78.957031 L 90.1875 84.765625 Z M 88.558594 84.765625" stroke-linecap="round" />
</g>
		<g transform="matrix(1.33 0 0 1.33 -124.7 36.85)" clip-path="url(#CLIPPATH_34)"  >
<clipPath id="CLIPPATH_34" >
	<rect transform="matrix(1 0 0 1 93.52 -27.73)" id="1807" clip-path="url(#undefined)" x="-187.5" y="-50.5" rx="0" ry="0" width="375" height="101" />
</clipPath>
<path style="stroke: none; stroke-width: 1; stroke-dasharray: none; stroke-linecap: butt; stroke-dashoffset: 0; stroke-linejoin: miter; stroke-miterlimit: 4; fill: rgb(255,255,255); fill-rule: nonzero; opacity: 1;" vector-effect="non-scaling-stroke"  transform=" translate(-93.98, -78.23)" d="M 90.1875 77.460938 L 93.691406 77.460938 C 94.433594 77.460938 95.015625 77.382812 95.4375 77.214844 C 95.859375 77.046875 96.175781 76.792969 96.394531 76.429688 C 96.617188 76.066406 96.722656 75.679688 96.722656 75.257812 C 96.722656 74.640625 96.507812 74.128906 96.085938 73.734375 C 95.664062 73.339844 94.996094 73.136719 94.085938 73.136719 L 90.1875 73.136719 Z M 88.558594 84.765625 L 88.558594 71.6875 L 94.019531 71.6875 C 95.117188 71.6875 95.953125 71.808594 96.523438 72.042969 C 97.089844 72.277344 97.546875 72.695312 97.886719 73.285156 C 98.230469 73.875 98.398438 74.539062 98.398438 75.257812 C 98.398438 76.179688 98.117188 76.964844 97.546875 77.601562 C 96.976562 78.242188 96.105469 78.644531 94.929688 78.816406 C 95.355469 79.039062 95.683594 79.253906 95.914062 79.46875 C 96.386719 79.929688 96.84375 80.515625 97.265625 81.210938 L 99.410156 84.765625 L 97.359375 84.765625 L 95.730469 82.042969 C 95.257812 81.257812 94.863281 80.65625 94.554688 80.238281 C 94.246094 79.824219 93.972656 79.527344 93.722656 79.367188 C 93.476562 79.207031 93.226562 79.085938 92.980469 79.019531 C 92.792969 78.976562 92.492188 78.957031 92.074219 78.957031 L 90.1875 78.957031 L 90.1875 84.765625 Z M 88.558594 84.765625" stroke-linecap="round" />
</g>
		<g transform="matrix(1.33 0 0 1.33 -108.05 36.85)" clip-path="url(#CLIPPATH_35)"  >
<clipPath id="CLIPPATH_35" >
	<rect transform="matrix(1 0 0 1 81.02 -27.73)" id="8e+35" clip-path="url(#undefined)" x="-187.5" y="-50.5" rx="0" ry="0" width="375" height="101" />
</clipPath>
<path style="stroke: none; stroke-width: 1; stroke-dasharray: none; stroke-linecap: butt; stroke-dashoffset: 0; stroke-linejoin: miter; stroke-miterlimit: 4; fill: rgb(255,255,255); fill-rule: nonzero; opacity: 1;" vector-effect="non-scaling-stroke"  transform=" translate(-106.48, -78.23)" d="M 101.625 84.765625 L 101.625 71.6875 L 103.300781 71.6875 L 109.769531 81.957031 L 109.769531 71.6875 L 111.328125 71.6875 L 111.328125 84.757812 L 109.660156 84.757812 L 103.191406 74.484375 L 103.191406 84.757812 Z M 101.625 84.765625" stroke-linecap="round" />
</g>
		<g transform="matrix(1.33 0 0 1.33 -108.05 36.85)" clip-path="url(#CLIPPATH_36)"  >
<clipPath id="CLIPPATH_36" >
	<rect transform="matrix(1 0 0 1 81.02 -27.73)" id="8224" clip-path="url(#undefined)" x="-187.5" y="-50.5" rx="0" ry="0" width="375" height="101" />
</clipPath>
<path style="stroke: none; stroke-width: 1; stroke-dasharray: none; stroke-linecap: butt; stroke-dashoffset: 0; stroke-linejoin: miter; stroke-miterlimit: 4; fill: rgb(255,255,255); fill-rule: nonzero; opacity: 1;" vector-effect="non-scaling-stroke"  transform=" translate(-106.48, -78.23)" d="M 101.625 84.765625 L 101.625 71.6875 L 103.300781 71.6875 L 109.769531 81.957031 L 109.769531 71.6875 L 111.328125 71.6875 L 111.328125 84.757812 L 109.660156 84.757812 L 103.191406 74.484375 L 103.191406 84.757812 Z M 101.625 84.765625" stroke-linecap="round" />
</g>
		<g transform="matrix(1.33 0 0 1.33 -83.54 36.85)" clip-path="url(#CLIPPATH_37)"  >
<clipPath id="CLIPPATH_37" >
	<rect transform="matrix(1 0 0 1 62.64 -27.73)" clip-path="url(#undefined)" x="-187.5" y="-50.5" rx="0" ry="0" width="375" height="101" />
</clipPath>
<path style="stroke: none; stroke-width: 1; stroke-dasharray: none; stroke-linecap: butt; stroke-dashoffset: 0; stroke-linejoin: miter; stroke-miterlimit: 4; fill: rgb(255,255,255); fill-rule: nonzero; opacity: 1;" vector-effect="non-scaling-stroke"  transform=" translate(-124.86, -78.23)" d="M 120.261719 84.765625 L 120.261719 71.6875 L 129.167969 71.6875 L 129.167969 73.230469 L 121.886719 73.230469 L 121.886719 77.234375 L 128.699219 77.234375 L 128.699219 78.769531 L 121.886719 78.769531 L 121.886719 83.222656 L 129.449219 83.222656 L 129.449219 84.765625 Z M 120.261719 84.765625" stroke-linecap="round" />
</g>
		<g transform="matrix(1.33 0 0 1.33 -83.54 36.85)" clip-path="url(#CLIPPATH_38)"  >
<clipPath id="CLIPPATH_38" >
	<rect transform="matrix(1 0 0 1 62.64 -27.73)" id="fb9a068bc2" clip-path="url(#undefined)" x="-187.5" y="-50.5" rx="0" ry="0" width="375" height="101" />
</clipPath>
<path style="stroke: none; stroke-width: 1; stroke-dasharray: none; stroke-linecap: butt; stroke-dashoffset: 0; stroke-linejoin: miter; stroke-miterlimit: 4; fill: rgb(255,255,255); fill-rule: nonzero; opacity: 1;" vector-effect="non-scaling-stroke"  transform=" translate(-124.86, -78.23)" d="M 120.261719 84.765625 L 120.261719 71.6875 L 129.167969 71.6875 L 129.167969 73.230469 L 121.886719 73.230469 L 121.886719 77.234375 L 128.699219 77.234375 L 128.699219 78.769531 L 121.886719 78.769531 L 121.886719 83.222656 L 129.449219 83.222656 L 129.449219 84.765625 Z M 120.261719 84.765625" stroke-linecap="round" />
</g>
		<g transform="matrix(1.33 0 0 1.33 -68.45 36.85)" clip-path="url(#CLIPPATH_39)"  >
<clipPath id="CLIPPATH_39" >
	<rect transform="matrix(1 0 0 1 51.33 -27.73)" id="2" clip-path="url(#undefined)" x="-187.5" y="-50.5" rx="0" ry="0" width="375" height="101" />
</clipPath>
<path style="stroke: none; stroke-width: 1; stroke-dasharray: none; stroke-linecap: butt; stroke-dashoffset: 0; stroke-linejoin: miter; stroke-miterlimit: 4; fill: rgb(255,255,255); fill-rule: nonzero; opacity: 1;" vector-effect="non-scaling-stroke"  transform=" translate(-136.17, -78.23)" d="M 132.320312 84.765625 L 132.320312 71.6875 L 133.949219 71.6875 L 133.949219 83.222656 L 140.015625 83.222656 L 140.015625 84.765625 Z M 132.320312 84.765625" stroke-linecap="round" />
</g>
		<g transform="matrix(1.33 0 0 1.33 -68.45 36.85)" clip-path="url(#CLIPPATH_40)"  >
<clipPath id="CLIPPATH_40" >
	<rect transform="matrix(1 0 0 1 51.33 -27.73)" id="bcc611e0a7" clip-path="url(#undefined)" x="-187.5" y="-50.5" rx="0" ry="0" width="375" height="101" />
</clipPath>
<path style="stroke: none; stroke-width: 1; stroke-dasharray: none; stroke-linecap: butt; stroke-dashoffset: 0; stroke-linejoin: miter; stroke-miterlimit: 4; fill: rgb(255,255,255); fill-rule: nonzero; opacity: 1;" vector-effect="non-scaling-stroke"  transform=" translate(-136.17, -78.23)" d="M 132.320312 84.765625 L 132.320312 71.6875 L 133.949219 71.6875 L 133.949219 83.222656 L 140.015625 83.222656 L 140.015625 84.765625 Z M 132.320312 84.765625" stroke-linecap="round" />
</g>
		<g transform="matrix(1.33 0 0 1.33 -53.65 36.85)" clip-path="url(#CLIPPATH_41)"  >
<clipPath id="CLIPPATH_41" >
	<rect transform="matrix(1 0 0 1 40.23 -27.73)" id="35" clip-path="url(#undefined)" x="-187.5" y="-50.5" rx="0" ry="0" width="375" height="101" />
</clipPath>
<path style="stroke: none; stroke-width: 1; stroke-dasharray: none; stroke-linecap: butt; stroke-dashoffset: 0; stroke-linejoin: miter; stroke-miterlimit: 4; fill: rgb(255,255,255); fill-rule: nonzero; opacity: 1;" vector-effect="non-scaling-stroke"  transform=" translate(-147.27, -78.23)" d="M 142.679688 84.765625 L 142.679688 71.6875 L 151.585938 71.6875 L 151.585938 73.230469 L 144.308594 73.230469 L 144.308594 77.234375 L 151.117188 77.234375 L 151.117188 78.769531 L 144.308594 78.769531 L 144.308594 83.222656 L 151.867188 83.222656 L 151.867188 84.765625 Z M 142.679688 84.765625" stroke-linecap="round" />
</g>
		<g transform="matrix(1.33 0 0 1.33 -53.65 36.85)" clip-path="url(#CLIPPATH_42)"  >
<clipPath id="CLIPPATH_42" >
	<rect transform="matrix(1 0 0 1 40.23 -27.73)" id="dd361acd66" clip-path="url(#undefined)" x="-187.5" y="-50.5" rx="0" ry="0" width="375" height="101" />
</clipPath>
<path style="stroke: none; stroke-width: 1; stroke-dasharray: none; stroke-linecap: butt; stroke-dashoffset: 0; stroke-linejoin: miter; stroke-miterlimit: 4; fill: rgb(255,255,255); fill-rule: nonzero; opacity: 1;" vector-effect="non-scaling-stroke"  transform=" translate(-147.27, -78.23)" d="M 142.679688 84.765625 L 142.679688 71.6875 L 151.585938 71.6875 L 151.585938 73.230469 L 144.308594 73.230469 L 144.308594 77.234375 L 151.117188 77.234375 L 151.117188 78.769531 L 144.308594 78.769531 L 144.308594 83.222656 L 151.867188 83.222656 L 151.867188 84.765625 Z M 142.679688 84.765625" stroke-linecap="round" />
</g>
		<g transform="matrix(1.33 0 0 1.33 -36.97 36.84)" clip-path="url(#CLIPPATH_43)"  >
<clipPath id="CLIPPATH_43" >
	<rect transform="matrix(1 0 0 1 27.71 -27.73)" id="80207" clip-path="url(#undefined)" x="-187.5" y="-50.5" rx="0" ry="0" width="375" height="101" />
</clipPath>
<path style="stroke: none; stroke-width: 1; stroke-dasharray: none; stroke-linecap: butt; stroke-dashoffset: 0; stroke-linejoin: miter; stroke-miterlimit: 4; fill: rgb(255,255,255); fill-rule: nonzero; opacity: 1;" vector-effect="non-scaling-stroke"  transform=" translate(-159.79, -78.23)" d="M 163.601562 80.179688 L 165.226562 80.613281 C 164.886719 82.035156 164.269531 83.117188 163.386719 83.867188 C 162.503906 84.617188 161.410156 84.988281 160.132812 84.988281 C 158.804688 84.988281 157.726562 84.699219 156.890625 84.128906 C 156.054688 83.558594 155.425781 82.726562 154.996094 81.640625 C 154.566406 80.554688 154.347656 79.378906 154.347656 78.132812 C 154.347656 76.773438 154.59375 75.585938 155.082031 74.570312 C 155.570312 73.558594 156.269531 72.789062 157.171875 72.257812 C 158.074219 71.726562 159.066406 71.464844 160.160156 71.464844 C 161.390625 71.464844 162.429688 71.800781 163.265625 72.464844 C 164.101562 73.128906 164.691406 74.070312 165.019531 75.277344 L 163.414062 75.679688 C 163.125 74.726562 162.710938 74.035156 162.167969 73.597656 C 161.625 73.164062 160.941406 72.949219 160.117188 72.949219 C 159.167969 72.949219 158.378906 73.191406 157.742188 73.671875 C 157.105469 74.15625 156.65625 74.800781 156.402344 75.613281 C 156.148438 76.421875 156.011719 77.261719 156.011719 78.121094 C 156.011719 79.234375 156.167969 80.207031 156.46875 81.03125 C 156.769531 81.855469 157.253906 82.480469 157.894531 82.886719 C 158.539062 83.296875 159.234375 83.503906 159.984375 83.503906 C 160.894531 83.503906 161.671875 83.222656 162.300781 82.667969 C 162.929688 82.109375 163.367188 81.277344 163.585938 80.179688" stroke-linecap="round" />
</g>
		<g transform="matrix(1.33 0 0 1.33 -36.97 36.84)" clip-path="url(#CLIPPATH_44)"  >
<clipPath id="CLIPPATH_44" >
	<rect transform="matrix(1 0 0 1 27.71 -27.73)" id="890" clip-path="url(#undefined)" x="-187.5" y="-50.5" rx="0" ry="0" width="375" height="101" />
</clipPath>
<path style="stroke: none; stroke-width: 1; stroke-dasharray: none; stroke-linecap: butt; stroke-dashoffset: 0; stroke-linejoin: miter; stroke-miterlimit: 4; fill: rgb(255,255,255); fill-rule: nonzero; opacity: 1;" vector-effect="non-scaling-stroke"  transform=" translate(-159.79, -78.23)" d="M 163.601562 80.179688 L 165.226562 80.613281 C 164.886719 82.035156 164.269531 83.117188 163.386719 83.867188 C 162.503906 84.617188 161.410156 84.988281 160.132812 84.988281 C 158.804688 84.988281 157.726562 84.699219 156.890625 84.128906 C 156.054688 83.558594 155.425781 82.726562 154.996094 81.640625 C 154.566406 80.554688 154.347656 79.378906 154.347656 78.132812 C 154.347656 76.773438 154.59375 75.585938 155.082031 74.570312 C 155.570312 73.558594 156.269531 72.789062 157.171875 72.257812 C 158.074219 71.726562 159.066406 71.464844 160.160156 71.464844 C 161.390625 71.464844 162.429688 71.800781 163.265625 72.464844 C 164.101562 73.128906 164.691406 74.070312 165.019531 75.277344 L 163.414062 75.679688 C 163.125 74.726562 162.710938 74.035156 162.167969 73.597656 C 161.625 73.164062 160.941406 72.949219 160.117188 72.949219 C 159.167969 72.949219 158.378906 73.191406 157.742188 73.671875 C 157.105469 74.15625 156.65625 74.800781 156.402344 75.613281 C 156.148438 76.421875 156.011719 77.261719 156.011719 78.121094 C 156.011719 79.234375 156.167969 80.207031 156.46875 81.03125 C 156.769531 81.855469 157.253906 82.480469 157.894531 82.886719 C 158.539062 83.296875 159.234375 83.503906 159.984375 83.503906 C 160.894531 83.503906 161.671875 83.222656 162.300781 82.667969 C 162.929688 82.109375 163.367188 81.277344 163.585938 80.179688" stroke-linecap="round" />
</g>
		<g transform="matrix(1.33 0 0 1.33 -20.84 36.85)" clip-path="url(#CLIPPATH_45)"  >
<clipPath id="CLIPPATH_45" >
	<rect transform="matrix(1 0 0 1 15.62 -27.73)" id="3" clip-path="url(#undefined)" x="-187.5" y="-50.5" rx="0" ry="0" width="375" height="101" />
</clipPath>
<path style="stroke: none; stroke-width: 1; stroke-dasharray: none; stroke-linecap: butt; stroke-dashoffset: 0; stroke-linejoin: miter; stroke-miterlimit: 4; fill: rgb(255,255,255); fill-rule: nonzero; opacity: 1;" vector-effect="non-scaling-stroke"  transform=" translate(-171.88, -78.23)" d="M 171.058594 84.765625 L 171.058594 73.230469 L 167.003906 73.230469 L 167.003906 71.6875 L 176.765625 71.6875 L 176.765625 73.230469 L 172.695312 73.230469 L 172.695312 84.757812 Z M 171.058594 84.765625" stroke-linecap="round" />
</g>
		<g transform="matrix(1.33 0 0 1.33 -20.84 36.85)" clip-path="url(#CLIPPATH_46)"  >
<clipPath id="CLIPPATH_46" >
	<rect transform="matrix(1 0 0 1 15.62 -27.73)" id="5" clip-path="url(#undefined)" x="-187.5" y="-50.5" rx="0" ry="0" width="375" height="101" />
</clipPath>
<path style="stroke: none; stroke-width: 1; stroke-dasharray: none; stroke-linecap: butt; stroke-dashoffset: 0; stroke-linejoin: miter; stroke-miterlimit: 4; fill: rgb(255,255,255); fill-rule: nonzero; opacity: 1;" vector-effect="non-scaling-stroke"  transform=" translate(-171.88, -78.23)" d="M 171.058594 84.765625 L 171.058594 73.230469 L 167.003906 73.230469 L 167.003906 71.6875 L 176.765625 71.6875 L 176.765625 73.230469 L 172.695312 73.230469 L 172.695312 84.757812 Z M 171.058594 84.765625" stroke-linecap="round" />
</g>
		<g transform="matrix(1.33 0 0 1.33 -3.93 36.85)" clip-path="url(#CLIPPATH_47)"  >
<clipPath id="CLIPPATH_47" >
	<rect transform="matrix(1 0 0 1 2.93 -27.73)" id="38430000000000000" clip-path="url(#undefined)" x="-187.5" y="-50.5" rx="0" ry="0" width="375" height="101" />
</clipPath>
<path style="stroke: none; stroke-width: 1; stroke-dasharray: none; stroke-linecap: butt; stroke-dashoffset: 0; stroke-linejoin: miter; stroke-miterlimit: 4; fill: rgb(255,255,255); fill-rule: nonzero; opacity: 1;" vector-effect="non-scaling-stroke"  transform=" translate(-184.57, -78.23)" d="M 180.777344 77.460938 L 184.277344 77.460938 C 185.023438 77.460938 185.605469 77.382812 186.027344 77.214844 C 186.449219 77.046875 186.761719 76.792969 186.984375 76.429688 C 187.207031 76.066406 187.3125 75.679688 187.3125 75.257812 C 187.3125 74.640625 187.097656 74.128906 186.675781 73.734375 C 186.253906 73.339844 185.585938 73.136719 184.675781 73.136719 L 180.777344 73.136719 Z M 179.148438 84.765625 L 179.148438 71.6875 L 184.605469 71.6875 C 185.707031 71.6875 186.542969 71.808594 187.113281 72.042969 C 187.679688 72.277344 188.144531 72.695312 188.476562 73.285156 C 188.8125 73.875 188.988281 74.539062 188.988281 75.257812 C 188.988281 76.179688 188.707031 76.964844 188.136719 77.601562 C 187.566406 78.242188 186.695312 78.644531 185.519531 78.816406 C 185.945312 79.039062 186.273438 79.253906 186.503906 79.46875 C 186.976562 79.929688 187.425781 80.515625 187.855469 81.210938 L 189.996094 84.765625 L 187.949219 84.765625 L 186.320312 82.042969 C 185.847656 81.257812 185.449219 80.65625 185.144531 80.238281 C 184.835938 79.824219 184.558594 79.527344 184.320312 79.367188 C 184.078125 79.207031 183.832031 79.085938 183.574219 79.019531 C 183.394531 78.976562 183.09375 78.957031 182.671875 78.957031 L 180.785156 78.957031 L 180.785156 84.765625 Z M 179.148438 84.765625" stroke-linecap="round" />
</g>
		<g transform="matrix(1.33 0 0 1.33 -3.93 36.85)" clip-path="url(#CLIPPATH_48)"  >
<clipPath id="CLIPPATH_48" >
	<rect transform="matrix(1 0 0 1 2.93 -27.73)" id="cc5389263d" clip-path="url(#undefined)" x="-187.5" y="-50.5" rx="0" ry="0" width="375" height="101" />
</clipPath>
<path style="stroke: none; stroke-width: 1; stroke-dasharray: none; stroke-linecap: butt; stroke-dashoffset: 0; stroke-linejoin: miter; stroke-miterlimit: 4; fill: rgb(255,255,255); fill-rule: nonzero; opacity: 1;" vector-effect="non-scaling-stroke"  transform=" translate(-184.57, -78.23)" d="M 180.777344 77.460938 L 184.277344 77.460938 C 185.023438 77.460938 185.605469 77.382812 186.027344 77.214844 C 186.449219 77.046875 186.761719 76.792969 186.984375 76.429688 C 187.207031 76.066406 187.3125 75.679688 187.3125 75.257812 C 187.3125 74.640625 187.097656 74.128906 186.675781 73.734375 C 186.253906 73.339844 185.585938 73.136719 184.675781 73.136719 L 180.777344 73.136719 Z M 179.148438 84.765625 L 179.148438 71.6875 L 184.605469 71.6875 C 185.707031 71.6875 186.542969 71.808594 187.113281 72.042969 C 187.679688 72.277344 188.144531 72.695312 188.476562 73.285156 C 188.8125 73.875 188.988281 74.539062 188.988281 75.257812 C 188.988281 76.179688 188.707031 76.964844 188.136719 77.601562 C 187.566406 78.242188 186.695312 78.644531 185.519531 78.816406 C 185.945312 79.039062 186.273438 79.253906 186.503906 79.46875 C 186.976562 79.929688 187.425781 80.515625 187.855469 81.210938 L 189.996094 84.765625 L 187.949219 84.765625 L 186.320312 82.042969 C 185.847656 81.257812 185.449219 80.65625 185.144531 80.238281 C 184.835938 79.824219 184.558594 79.527344 184.320312 79.367188 C 184.078125 79.207031 183.832031 79.085938 183.574219 79.019531 C 183.394531 78.976562 183.09375 78.957031 182.671875 78.957031 L 180.785156 78.957031 L 180.785156 84.765625 Z M 179.148438 84.765625" stroke-linecap="round" />
</g>
		<g transform="matrix(1.33 0 0 1.33 7.76 36.84)" clip-path="url(#CLIPPATH_49)"  >
<clipPath id="CLIPPATH_49" >
	<rect transform="matrix(1 0 0 1 -5.82 -27.72)" id="5" clip-path="url(#undefined)" x="-187.5" y="-50.5" rx="0" ry="0" width="375" height="101" />
</clipPath>
<path style="stroke: none; stroke-width: 1; stroke-dasharray: none; stroke-linecap: butt; stroke-dashoffset: 0; stroke-linejoin: miter; stroke-miterlimit: 4; fill: rgb(255,255,255); fill-rule: nonzero; opacity: 1;" vector-effect="non-scaling-stroke"  transform=" translate(-193.32, -78.22)" d="M 192.507812 71.6875 L 194.136719 71.6875 L 194.136719 84.757812 L 192.507812 84.757812 Z M 192.507812 71.6875" stroke-linecap="round" />
</g>
		<g transform="matrix(1.33 0 0 1.33 7.76 36.84)" clip-path="url(#CLIPPATH_50)"  >
<clipPath id="CLIPPATH_50" >
	<rect transform="matrix(1 0 0 1 -5.82 -27.72)" id="17" clip-path="url(#undefined)" x="-187.5" y="-50.5" rx="0" ry="0" width="375" height="101" />
</clipPath>
<path style="stroke: none; stroke-width: 1; stroke-dasharray: none; stroke-linecap: butt; stroke-dashoffset: 0; stroke-linejoin: miter; stroke-miterlimit: 4; fill: rgb(255,255,255); fill-rule: nonzero; opacity: 1;" vector-effect="non-scaling-stroke"  transform=" translate(-193.32, -78.22)" d="M 192.507812 71.6875 L 194.136719 71.6875 L 194.136719 84.757812 L 192.507812 84.757812 Z M 192.507812 71.6875" stroke-linecap="round" />
</g>
		<g transform="matrix(1.33 0 0 1.33 20.21 36.84)" clip-path="url(#CLIPPATH_51)"  >
<clipPath id="CLIPPATH_51" >
	<rect transform="matrix(1 0 0 1 -15.18 -27.73)" id="39" clip-path="url(#undefined)" x="-187.5" y="-50.5" rx="0" ry="0" width="375" height="101" />
</clipPath>
<path style="stroke: none; stroke-width: 1; stroke-dasharray: none; stroke-linecap: butt; stroke-dashoffset: 0; stroke-linejoin: miter; stroke-miterlimit: 4; fill: rgb(255,255,255); fill-rule: nonzero; opacity: 1;" vector-effect="non-scaling-stroke"  transform=" translate(-202.68, -78.23)" d="M 206.492188 80.179688 L 208.117188 80.613281 C 207.777344 82.035156 207.160156 83.117188 206.277344 83.867188 C 205.394531 84.617188 204.300781 84.988281 203.023438 84.988281 C 201.695312 84.988281 200.617188 84.699219 199.78125 84.128906 C 198.945312 83.558594 198.316406 82.726562 197.886719 81.640625 C 197.457031 80.554688 197.238281 79.378906 197.238281 78.132812 C 197.238281 76.773438 197.484375 75.585938 197.972656 74.570312 C 198.460938 73.558594 199.160156 72.789062 200.0625 72.257812 C 200.964844 71.726562 201.964844 71.464844 203.050781 71.464844 C 204.28125 71.464844 205.320312 71.800781 206.15625 72.464844 C 206.992188 73.128906 207.582031 74.070312 207.910156 75.277344 L 206.304688 75.679688 C 206.015625 74.726562 205.601562 74.035156 205.058594 73.597656 C 204.515625 73.164062 203.832031 72.949219 203.007812 72.949219 C 202.066406 72.949219 201.269531 73.191406 200.636719 73.671875 C 200.007812 74.15625 199.554688 74.800781 199.300781 75.613281 C 199.042969 76.421875 198.910156 77.261719 198.910156 78.121094 C 198.910156 79.234375 199.066406 80.207031 199.367188 81.03125 C 199.667969 81.855469 200.144531 82.480469 200.785156 82.886719 C 201.429688 83.296875 202.125 83.503906 202.875 83.503906 C 203.785156 83.503906 204.5625 83.222656 205.191406 82.667969 C 205.820312 82.109375 206.25 81.277344 206.476562 80.179688" stroke-linecap="round" />
</g>
		<g transform="matrix(1.33 0 0 1.33 20.21 36.84)" clip-path="url(#CLIPPATH_52)"  >
<clipPath id="CLIPPATH_52" >
	<rect transform="matrix(1 0 0 1 -15.18 -27.73)" id="c0495cdfee" clip-path="url(#undefined)" x="-187.5" y="-50.5" rx="0" ry="0" width="375" height="101" />
</clipPath>
<path style="stroke: none; stroke-width: 1; stroke-dasharray: none; stroke-linecap: butt; stroke-dashoffset: 0; stroke-linejoin: miter; stroke-miterlimit: 4; fill: rgb(255,255,255); fill-rule: nonzero; opacity: 1;" vector-effect="non-scaling-stroke"  transform=" translate(-202.68, -78.23)" d="M 206.492188 80.179688 L 208.117188 80.613281 C 207.777344 82.035156 207.160156 83.117188 206.277344 83.867188 C 205.394531 84.617188 204.300781 84.988281 203.023438 84.988281 C 201.695312 84.988281 200.617188 84.699219 199.78125 84.128906 C 198.945312 83.558594 198.316406 82.726562 197.886719 81.640625 C 197.457031 80.554688 197.238281 79.378906 197.238281 78.132812 C 197.238281 76.773438 197.484375 75.585938 197.972656 74.570312 C 198.460938 73.558594 199.160156 72.789062 200.0625 72.257812 C 200.964844 71.726562 201.964844 71.464844 203.050781 71.464844 C 204.28125 71.464844 205.320312 71.800781 206.15625 72.464844 C 206.992188 73.128906 207.582031 74.070312 207.910156 75.277344 L 206.304688 75.679688 C 206.015625 74.726562 205.601562 74.035156 205.058594 73.597656 C 204.515625 73.164062 203.832031 72.949219 203.007812 72.949219 C 202.066406 72.949219 201.269531 73.191406 200.636719 73.671875 C 200.007812 74.15625 199.554688 74.800781 199.300781 75.613281 C 199.042969 76.421875 198.910156 77.261719 198.910156 78.121094 C 198.910156 79.234375 199.066406 80.207031 199.367188 81.03125 C 199.667969 81.855469 200.144531 82.480469 200.785156 82.886719 C 201.429688 83.296875 202.125 83.503906 202.875 83.503906 C 203.785156 83.503906 204.5625 83.222656 205.191406 82.667969 C 205.820312 82.109375 206.25 81.277344 206.476562 80.179688" stroke-linecap="round" />
</g>
		<g transform="matrix(1.33 0 0 1.33 36.94 36.85)" clip-path="url(#CLIPPATH_53)"  >
<clipPath id="CLIPPATH_53" >
	<rect transform="matrix(1 0 0 1 -27.72 -27.73)" id="63342915" clip-path="url(#undefined)" x="-187.5" y="-50.5" rx="0" ry="0" width="375" height="101" />
</clipPath>
<path style="stroke: none; stroke-width: 1; stroke-dasharray: none; stroke-linecap: butt; stroke-dashoffset: 0; stroke-linejoin: miter; stroke-miterlimit: 4; fill: rgb(255,255,255); fill-rule: nonzero; opacity: 1;" vector-effect="non-scaling-stroke"  transform=" translate(-215.22, -78.23)" d="M 213.011719 79.394531 L 217.191406 79.394531 L 215.90625 75.773438 C 215.511719 74.671875 215.222656 73.765625 215.035156 73.0625 C 214.882812 73.902344 214.660156 74.734375 214.371094 75.558594 Z M 209.457031 84.765625 L 214.183594 71.695312 L 215.941406 71.695312 L 220.980469 84.765625 L 219.128906 84.765625 L 217.695312 80.808594 L 212.542969 80.808594 L 211.191406 84.765625 Z M 209.457031 84.765625" stroke-linecap="round" />
</g>
		<g transform="matrix(1.33 0 0 1.33 36.94 36.85)" clip-path="url(#CLIPPATH_54)"  >
<clipPath id="CLIPPATH_54" >
	<rect transform="matrix(1 0 0 1 -27.72 -27.73)" id="468" clip-path="url(#undefined)" x="-187.5" y="-50.5" rx="0" ry="0" width="375" height="101" />
</clipPath>
<path style="stroke: none; stroke-width: 1; stroke-dasharray: none; stroke-linecap: butt; stroke-dashoffset: 0; stroke-linejoin: miter; stroke-miterlimit: 4; fill: rgb(255,255,255); fill-rule: nonzero; opacity: 1;" vector-effect="non-scaling-stroke"  transform=" translate(-215.22, -78.23)" d="M 213.011719 79.394531 L 217.191406 79.394531 L 215.90625 75.773438 C 215.511719 74.671875 215.222656 73.765625 215.035156 73.0625 C 214.882812 73.902344 214.660156 74.734375 214.371094 75.558594 Z M 209.457031 84.765625 L 214.183594 71.695312 L 215.941406 71.695312 L 220.980469 84.765625 L 219.128906 84.765625 L 217.695312 80.808594 L 212.542969 80.808594 L 211.191406 84.765625 Z M 209.457031 84.765625" stroke-linecap="round" />
</g>
		<g transform="matrix(1.33 0 0 1.33 52.33 36.85)" clip-path="url(#CLIPPATH_55)"  >
<clipPath id="CLIPPATH_55" >
	<rect transform="matrix(1 0 0 1 -39.26 -27.73)" clip-path="url(#undefined)" x="-187.5" y="-50.5" rx="0" ry="0" width="375" height="101" />
</clipPath>
<path style="stroke: none; stroke-width: 1; stroke-dasharray: none; stroke-linecap: butt; stroke-dashoffset: 0; stroke-linejoin: miter; stroke-miterlimit: 4; fill: rgb(255,255,255); fill-rule: nonzero; opacity: 1;" vector-effect="non-scaling-stroke"  transform=" translate(-226.76, -78.23)" d="M 222.910156 84.765625 L 222.910156 71.6875 L 224.539062 71.6875 L 224.539062 83.222656 L 230.605469 83.222656 L 230.605469 84.765625 Z M 222.910156 84.765625" stroke-linecap="round" />
</g>
		<g transform="matrix(1.33 0 0 1.33 52.33 36.85)" clip-path="url(#CLIPPATH_56)"  >
<clipPath id="CLIPPATH_56" >
	<rect transform="matrix(1 0 0 1 -39.26 -27.73)" clip-path="url(#undefined)" x="-187.5" y="-50.5" rx="0" ry="0" width="375" height="101" />
</clipPath>
<path style="stroke: none; stroke-width: 1; stroke-dasharray: none; stroke-linecap: butt; stroke-dashoffset: 0; stroke-linejoin: miter; stroke-miterlimit: 4; fill: rgb(255,255,255); fill-rule: nonzero; opacity: 1;" vector-effect="non-scaling-stroke"  transform=" translate(-226.76, -78.23)" d="M 222.910156 84.765625 L 222.910156 71.6875 L 224.539062 71.6875 L 224.539062 83.222656 L 230.605469 83.222656 L 230.605469 84.765625 Z M 222.910156 84.765625" stroke-linecap="round" />
</g>
		<g transform="matrix(1.33 0 0 1.33 73.21 36.85)" clip-path="url(#CLIPPATH_57)"  >
<clipPath id="CLIPPATH_57" >
	<rect transform="matrix(1 0 0 1 -54.92 -27.73)" id="62" clip-path="url(#undefined)" x="-187.5" y="-50.5" rx="0" ry="0" width="375" height="101" />
</clipPath>
<path style="stroke: none; stroke-width: 1; stroke-dasharray: none; stroke-linecap: butt; stroke-dashoffset: 0; stroke-linejoin: miter; stroke-miterlimit: 4; fill: rgb(255,255,255); fill-rule: nonzero; opacity: 1;" vector-effect="non-scaling-stroke"  transform=" translate(-242.42, -78.23)" d="M 237.507812 80.566406 L 239.050781 80.425781 C 239.121094 81.085938 239.289062 81.621094 239.558594 82.035156 C 239.824219 82.453125 240.234375 82.792969 240.796875 83.054688 C 241.359375 83.316406 241.988281 83.445312 242.683594 83.445312 C 243.308594 83.445312 243.855469 83.34375 244.332031 83.148438 C 244.808594 82.957031 245.164062 82.6875 245.398438 82.34375 C 245.632812 82.003906 245.746094 81.628906 245.746094 81.226562 C 245.746094 80.824219 245.632812 80.460938 245.410156 80.152344 C 245.191406 79.84375 244.816406 79.589844 244.304688 79.378906 C 243.976562 79.246094 243.246094 79.03125 242.117188 78.742188 C 240.984375 78.457031 240.195312 78.179688 239.738281 77.925781 C 239.148438 77.597656 238.714844 77.195312 238.425781 76.703125 C 238.136719 76.214844 237.992188 75.679688 237.992188 75.074219 C 237.992188 74.417969 238.164062 73.800781 238.519531 73.222656 C 238.875 72.648438 239.390625 72.210938 240.066406 71.917969 C 240.742188 71.621094 241.492188 71.472656 242.324219 71.472656 C 243.234375 71.472656 244.042969 71.628906 244.742188 71.941406 C 245.4375 72.257812 245.972656 72.714844 246.347656 73.316406 C 246.722656 73.921875 246.925781 74.613281 246.949219 75.375 L 245.390625 75.503906 C 245.308594 74.679688 245.023438 74.054688 244.539062 73.632812 C 244.058594 73.210938 243.339844 73.003906 242.398438 73.003906 C 241.414062 73.003906 240.691406 73.195312 240.242188 73.578125 C 239.792969 73.960938 239.566406 74.425781 239.566406 74.96875 C 239.566406 75.4375 239.726562 75.824219 240.039062 76.128906 C 240.355469 76.429688 241.171875 76.746094 242.496094 77.058594 C 243.824219 77.375 244.726562 77.65625 245.222656 77.890625 C 245.941406 78.242188 246.46875 78.683594 246.808594 79.226562 C 247.152344 79.769531 247.324219 80.386719 247.324219 81.085938 C 247.324219 81.78125 247.136719 82.4375 246.761719 83.050781 C 246.386719 83.660156 245.851562 84.140625 245.148438 84.484375 C 244.445312 84.828125 243.65625 84.996094 242.777344 84.996094 C 241.667969 84.996094 240.730469 84.820312 239.980469 84.476562 C 239.230469 84.136719 238.632812 83.613281 238.207031 82.921875 C 237.777344 82.230469 237.550781 81.445312 237.527344 80.574219" stroke-linecap="round" />
</g>
		<g transform="matrix(1.33 0 0 1.33 73.21 36.85)" clip-path="url(#CLIPPATH_58)"  >
<clipPath id="CLIPPATH_58" >
	<rect transform="matrix(1 0 0 1 -54.92 -27.73)" id="2.991e+56" clip-path="url(#undefined)" x="-187.5" y="-50.5" rx="0" ry="0" width="375" height="101" />
</clipPath>
<path style="stroke: none; stroke-width: 1; stroke-dasharray: none; stroke-linecap: butt; stroke-dashoffset: 0; stroke-linejoin: miter; stroke-miterlimit: 4; fill: rgb(255,255,255); fill-rule: nonzero; opacity: 1;" vector-effect="non-scaling-stroke"  transform=" translate(-242.42, -78.23)" d="M 237.507812 80.566406 L 239.050781 80.425781 C 239.121094 81.085938 239.289062 81.621094 239.558594 82.035156 C 239.824219 82.453125 240.234375 82.792969 240.796875 83.054688 C 241.359375 83.316406 241.988281 83.445312 242.683594 83.445312 C 243.308594 83.445312 243.855469 83.34375 244.332031 83.148438 C 244.808594 82.957031 245.164062 82.6875 245.398438 82.34375 C 245.632812 82.003906 245.746094 81.628906 245.746094 81.226562 C 245.746094 80.824219 245.632812 80.460938 245.410156 80.152344 C 245.191406 79.84375 244.816406 79.589844 244.304688 79.378906 C 243.976562 79.246094 243.246094 79.03125 242.117188 78.742188 C 240.984375 78.457031 240.195312 78.179688 239.738281 77.925781 C 239.148438 77.597656 238.714844 77.195312 238.425781 76.703125 C 238.136719 76.214844 237.992188 75.679688 237.992188 75.074219 C 237.992188 74.417969 238.164062 73.800781 238.519531 73.222656 C 238.875 72.648438 239.390625 72.210938 240.066406 71.917969 C 240.742188 71.621094 241.492188 71.472656 242.324219 71.472656 C 243.234375 71.472656 244.042969 71.628906 244.742188 71.941406 C 245.4375 72.257812 245.972656 72.714844 246.347656 73.316406 C 246.722656 73.921875 246.925781 74.613281 246.949219 75.375 L 245.390625 75.503906 C 245.308594 74.679688 245.023438 74.054688 244.539062 73.632812 C 244.058594 73.210938 243.339844 73.003906 242.398438 73.003906 C 241.414062 73.003906 240.691406 73.195312 240.242188 73.578125 C 239.792969 73.960938 239.566406 74.425781 239.566406 74.96875 C 239.566406 75.4375 239.726562 75.824219 240.039062 76.128906 C 240.355469 76.429688 241.171875 76.746094 242.496094 77.058594 C 243.824219 77.375 244.726562 77.65625 245.222656 77.890625 C 245.941406 78.242188 246.46875 78.683594 246.808594 79.226562 C 247.152344 79.769531 247.324219 80.386719 247.324219 81.085938 C 247.324219 81.78125 247.136719 82.4375 246.761719 83.050781 C 246.386719 83.660156 245.851562 84.140625 245.148438 84.484375 C 244.445312 84.828125 243.65625 84.996094 242.777344 84.996094 C 241.667969 84.996094 240.730469 84.820312 239.980469 84.476562 C 239.230469 84.136719 238.632812 83.613281 238.207031 82.921875 C 237.777344 82.230469 237.550781 81.445312 237.527344 80.574219" stroke-linecap="round" />
</g>
		<g transform="matrix(1.33 0 0 1.33 90.79 36.82)" clip-path="url(#CLIPPATH_59)"  >
<clipPath id="CLIPPATH_59" >
	<rect transform="matrix(1 0 0 1 -68.11 -27.71)" id="70" clip-path="url(#undefined)" x="-187.5" y="-50.5" rx="0" ry="0" width="375" height="101" />
</clipPath>
<path style="stroke: none; stroke-width: 1; stroke-dasharray: none; stroke-linecap: butt; stroke-dashoffset: 0; stroke-linejoin: miter; stroke-miterlimit: 4; fill: rgb(255,255,255); fill-rule: nonzero; opacity: 1;" vector-effect="non-scaling-stroke"  transform=" translate(-255.61, -78.21)" d="M 251.410156 78.421875 C 251.410156 79.996094 251.8125 81.238281 252.609375 82.144531 C 253.40625 83.050781 254.410156 83.503906 255.609375 83.503906 C 256.835938 83.503906 257.847656 83.050781 258.636719 82.128906 C 259.425781 81.210938 259.820312 79.917969 259.820312 78.234375 C 259.820312 77.167969 259.652344 76.242188 259.3125 75.445312 C 258.972656 74.644531 258.476562 74.035156 257.824219 73.597656 C 257.175781 73.164062 256.441406 72.941406 255.628906 72.941406 C 254.476562 72.941406 253.488281 73.363281 252.648438 74.203125 C 251.8125 75.042969 251.402344 76.449219 251.402344 78.414062 M 249.722656 78.386719 C 249.722656 76.214844 250.273438 74.519531 251.371094 73.289062 C 252.46875 72.0625 253.886719 71.445312 255.621094 71.445312 C 256.761719 71.445312 257.785156 71.734375 258.695312 72.3125 C 259.605469 72.886719 260.304688 73.691406 260.785156 74.726562 C 261.269531 75.757812 261.503906 76.925781 261.503906 78.234375 C 261.503906 79.5625 261.246094 80.742188 260.746094 81.796875 C 260.242188 82.847656 259.527344 83.632812 258.601562 84.167969 C 257.679688 84.707031 256.679688 84.972656 255.609375 84.972656 C 254.449219 84.972656 253.414062 84.679688 252.503906 84.082031 C 251.589844 83.484375 250.894531 82.671875 250.425781 81.648438 C 249.957031 80.621094 249.722656 79.527344 249.722656 78.382812" stroke-linecap="round" />
</g>
		<g transform="matrix(1.33 0 0 1.33 90.79 36.82)" clip-path="url(#CLIPPATH_60)"  >
<clipPath id="CLIPPATH_60" >
	<rect transform="matrix(1 0 0 1 -68.11 -27.71)" id="cafb0efdca" clip-path="url(#undefined)" x="-187.5" y="-50.5" rx="0" ry="0" width="375" height="101" />
</clipPath>
<path style="stroke: none; stroke-width: 1; stroke-dasharray: none; stroke-linecap: butt; stroke-dashoffset: 0; stroke-linejoin: miter; stroke-miterlimit: 4; fill: rgb(255,255,255); fill-rule: nonzero; opacity: 1;" vector-effect="non-scaling-stroke"  transform=" translate(-255.61, -78.21)" d="M 251.410156 78.421875 C 251.410156 79.996094 251.8125 81.238281 252.609375 82.144531 C 253.40625 83.050781 254.410156 83.503906 255.609375 83.503906 C 256.835938 83.503906 257.847656 83.050781 258.636719 82.128906 C 259.425781 81.210938 259.820312 79.917969 259.820312 78.234375 C 259.820312 77.167969 259.652344 76.242188 259.3125 75.445312 C 258.972656 74.644531 258.476562 74.035156 257.824219 73.597656 C 257.175781 73.164062 256.441406 72.941406 255.628906 72.941406 C 254.476562 72.941406 253.488281 73.363281 252.648438 74.203125 C 251.8125 75.042969 251.402344 76.449219 251.402344 78.414062 M 249.722656 78.386719 C 249.722656 76.214844 250.273438 74.519531 251.371094 73.289062 C 252.46875 72.0625 253.886719 71.445312 255.621094 71.445312 C 256.761719 71.445312 257.785156 71.734375 258.695312 72.3125 C 259.605469 72.886719 260.304688 73.691406 260.785156 74.726562 C 261.269531 75.757812 261.503906 76.925781 261.503906 78.234375 C 261.503906 79.5625 261.246094 80.742188 260.746094 81.796875 C 260.242188 82.847656 259.527344 83.632812 258.601562 84.167969 C 257.679688 84.707031 256.679688 84.972656 255.609375 84.972656 C 254.449219 84.972656 253.414062 84.679688 252.503906 84.082031 C 251.589844 83.484375 250.894531 82.671875 250.425781 81.648438 C 249.957031 80.621094 249.722656 79.527344 249.722656 78.382812" stroke-linecap="round" />
</g>
		<g transform="matrix(1.33 0 0 1.33 107.43 36.85)" clip-path="url(#CLIPPATH_61)"  >
<clipPath id="CLIPPATH_61" >
	<rect transform="matrix(1 0 0 1 -80.58 -27.73)" id="8354" clip-path="url(#undefined)" x="-187.5" y="-50.5" rx="0" ry="0" width="375" height="101" />
</clipPath>
<path style="stroke: none; stroke-width: 1; stroke-dasharray: none; stroke-linecap: butt; stroke-dashoffset: 0; stroke-linejoin: miter; stroke-miterlimit: 4; fill: rgb(255,255,255); fill-rule: nonzero; opacity: 1;" vector-effect="non-scaling-stroke"  transform=" translate(-268.08, -78.23)" d="M 264.234375 84.765625 L 264.234375 71.6875 L 265.863281 71.6875 L 265.863281 83.222656 L 271.929688 83.222656 L 271.929688 84.765625 Z M 264.234375 84.765625" stroke-linecap="round" />
</g>
		<g transform="matrix(1.33 0 0 1.33 107.43 36.85)" clip-path="url(#CLIPPATH_62)"  >
<clipPath id="CLIPPATH_62" >
	<rect transform="matrix(1 0 0 1 -80.58 -27.73)" id="f660ebbc28" clip-path="url(#undefined)" x="-187.5" y="-50.5" rx="0" ry="0" width="375" height="101" />
</clipPath>
<path style="stroke: none; stroke-width: 1; stroke-dasharray: none; stroke-linecap: butt; stroke-dashoffset: 0; stroke-linejoin: miter; stroke-miterlimit: 4; fill: rgb(255,255,255); fill-rule: nonzero; opacity: 1;" vector-effect="non-scaling-stroke"  transform=" translate(-268.08, -78.23)" d="M 264.234375 84.765625 L 264.234375 71.6875 L 265.863281 71.6875 L 265.863281 83.222656 L 271.929688 83.222656 L 271.929688 84.765625 Z M 264.234375 84.765625" stroke-linecap="round" />
</g>
		<g transform="matrix(1.33 0 0 1.33 122.54 36.99)" clip-path="url(#CLIPPATH_63)"  >
<clipPath id="CLIPPATH_63" >
	<rect transform="matrix(1 0 0 1 -91.91 -27.83)" id="bb9323f47c" clip-path="url(#undefined)" x="-187.5" y="-50.5" rx="0" ry="0" width="375" height="101" />
</clipPath>
<path style="stroke: none; stroke-width: 1; stroke-dasharray: none; stroke-linecap: butt; stroke-dashoffset: 0; stroke-linejoin: miter; stroke-miterlimit: 4; fill: rgb(255,255,255); fill-rule: nonzero; opacity: 1;" vector-effect="non-scaling-stroke"  transform=" translate(-279.41, -78.33)" d="M 282.636719 71.6875 L 284.261719 71.6875 L 284.261719 79.238281 C 284.261719 80.554688 284.121094 81.601562 283.839844 82.371094 C 283.558594 83.144531 283.058594 83.773438 282.320312 84.257812 C 281.585938 84.738281 280.632812 84.980469 279.441406 84.980469 C 278.289062 84.980469 277.347656 84.773438 276.609375 84.351562 C 275.871094 83.929688 275.351562 83.316406 275.035156 82.519531 C 274.722656 81.722656 274.566406 80.628906 274.566406 79.238281 L 274.566406 71.6875 L 276.195312 71.6875 L 276.195312 79.234375 C 276.195312 80.367188 276.292969 81.203125 276.488281 81.742188 C 276.683594 82.277344 277.03125 82.695312 277.511719 82.988281 C 277.996094 83.285156 278.589844 83.425781 279.289062 83.425781 C 280.488281 83.425781 281.34375 83.136719 281.851562 82.558594 C 282.363281 81.984375 282.617188 80.875 282.617188 79.234375 Z M 282.636719 71.6875" stroke-linecap="round" />
</g>
		<g transform="matrix(1.33 0 0 1.33 122.54 36.99)" clip-path="url(#CLIPPATH_64)"  >
<clipPath id="CLIPPATH_64" >
	<rect transform="matrix(1 0 0 1 -91.91 -27.83)" id="c5f8666f39" clip-path="url(#undefined)" x="-187.5" y="-50.5" rx="0" ry="0" width="375" height="101" />
</clipPath>
<path style="stroke: none; stroke-width: 1; stroke-dasharray: none; stroke-linecap: butt; stroke-dashoffset: 0; stroke-linejoin: miter; stroke-miterlimit: 4; fill: rgb(255,255,255); fill-rule: nonzero; opacity: 1;" vector-effect="non-scaling-stroke"  transform=" translate(-279.41, -78.33)" d="M 282.636719 71.6875 L 284.261719 71.6875 L 284.261719 79.238281 C 284.261719 80.554688 284.121094 81.601562 283.839844 82.371094 C 283.558594 83.144531 283.058594 83.773438 282.320312 84.257812 C 281.585938 84.738281 280.632812 84.980469 279.441406 84.980469 C 278.289062 84.980469 277.347656 84.773438 276.609375 84.351562 C 275.871094 83.929688 275.351562 83.316406 275.035156 82.519531 C 274.722656 81.722656 274.566406 80.628906 274.566406 79.238281 L 274.566406 71.6875 L 276.195312 71.6875 L 276.195312 79.234375 C 276.195312 80.367188 276.292969 81.203125 276.488281 81.742188 C 276.683594 82.277344 277.03125 82.695312 277.511719 82.988281 C 277.996094 83.285156 278.589844 83.425781 279.289062 83.425781 C 280.488281 83.425781 281.34375 83.136719 281.851562 82.558594 C 282.363281 81.984375 282.617188 80.875 282.617188 79.234375 Z M 282.636719 71.6875" stroke-linecap="round" />
</g>
		<g transform="matrix(1.33 0 0 1.33 138.81 36.85)" clip-path="url(#CLIPPATH_65)"  >
<clipPath id="CLIPPATH_65" >
	<rect transform="matrix(1 0 0 1 -104.12 -27.73)" id="3" clip-path="url(#undefined)" x="-187.5" y="-50.5" rx="0" ry="0" width="375" height="101" />
</clipPath>
<path style="stroke: none; stroke-width: 1; stroke-dasharray: none; stroke-linecap: butt; stroke-dashoffset: 0; stroke-linejoin: miter; stroke-miterlimit: 4; fill: rgb(255,255,255); fill-rule: nonzero; opacity: 1;" vector-effect="non-scaling-stroke"  transform=" translate(-291.62, -78.23)" d="M 290.800781 84.765625 L 290.800781 73.230469 L 286.742188 73.230469 L 286.742188 71.6875 L 296.503906 71.6875 L 296.503906 73.230469 L 292.433594 73.230469 L 292.433594 84.757812 Z M 290.800781 84.765625" stroke-linecap="round" />
</g>
		<g transform="matrix(1.33 0 0 1.33 138.81 36.85)" clip-path="url(#CLIPPATH_66)"  >
<clipPath id="CLIPPATH_66" >
	<rect transform="matrix(1 0 0 1 -104.12 -27.73)" id="c861d0b18e" clip-path="url(#undefined)" x="-187.5" y="-50.5" rx="0" ry="0" width="375" height="101" />
</clipPath>
<path style="stroke: none; stroke-width: 1; stroke-dasharray: none; stroke-linecap: butt; stroke-dashoffset: 0; stroke-linejoin: miter; stroke-miterlimit: 4; fill: rgb(255,255,255); fill-rule: nonzero; opacity: 1;" vector-effect="non-scaling-stroke"  transform=" translate(-291.62, -78.23)" d="M 290.800781 84.765625 L 290.800781 73.230469 L 286.742188 73.230469 L 286.742188 71.6875 L 296.503906 71.6875 L 296.503906 73.230469 L 292.433594 73.230469 L 292.433594 84.757812 Z M 290.800781 84.765625" stroke-linecap="round" />
</g>
		<g transform="matrix(1.33 0 0 1.33 149.94 36.84)" clip-path="url(#CLIPPATH_67)"  >
<clipPath id="CLIPPATH_67" >
	<rect transform="matrix(1 0 0 1 -112.46 -27.72)" id="c5971396d5" clip-path="url(#undefined)" x="-187.5" y="-50.5" rx="0" ry="0" width="375" height="101" />
</clipPath>
<path style="stroke: none; stroke-width: 1; stroke-dasharray: none; stroke-linecap: butt; stroke-dashoffset: 0; stroke-linejoin: miter; stroke-miterlimit: 4; fill: rgb(255,255,255); fill-rule: nonzero; opacity: 1;" vector-effect="non-scaling-stroke"  transform=" translate(-299.96, -78.22)" d="M 299.144531 71.6875 L 300.769531 71.6875 L 300.769531 84.757812 L 299.144531 84.757812 Z M 299.144531 71.6875" stroke-linecap="round" />
</g>
		<g transform="matrix(1.33 0 0 1.33 149.94 36.84)" clip-path="url(#CLIPPATH_68)"  >
<clipPath id="CLIPPATH_68" >
	<rect transform="matrix(1 0 0 1 -112.46 -27.72)" id="9" clip-path="url(#undefined)" x="-187.5" y="-50.5" rx="0" ry="0" width="375" height="101" />
</clipPath>
<path style="stroke: none; stroke-width: 1; stroke-dasharray: none; stroke-linecap: butt; stroke-dashoffset: 0; stroke-linejoin: miter; stroke-miterlimit: 4; fill: rgb(255,255,255); fill-rule: nonzero; opacity: 1;" vector-effect="non-scaling-stroke"  transform=" translate(-299.96, -78.22)" d="M 299.144531 71.6875 L 300.769531 71.6875 L 300.769531 84.757812 L 299.144531 84.757812 Z M 299.144531 71.6875" stroke-linecap="round" />
</g>
		<g transform="matrix(1.33 0 0 1.33 162.94 36.82)" clip-path="url(#CLIPPATH_69)"  >
<clipPath id="CLIPPATH_69" >
	<rect transform="matrix(1 0 0 1 -122.22 -27.71)" id="5" clip-path="url(#undefined)" x="-187.5" y="-50.5" rx="0" ry="0" width="375" height="101" />
</clipPath>
<path style="stroke: none; stroke-width: 1; stroke-dasharray: none; stroke-linecap: butt; stroke-dashoffset: 0; stroke-linejoin: miter; stroke-miterlimit: 4; fill: rgb(255,255,255); fill-rule: nonzero; opacity: 1;" vector-effect="non-scaling-stroke"  transform=" translate(-309.72, -78.21)" d="M 305.519531 78.421875 C 305.519531 79.996094 305.917969 81.238281 306.714844 82.144531 C 307.511719 83.050781 308.519531 83.503906 309.714844 83.503906 C 310.941406 83.503906 311.953125 83.050781 312.742188 82.128906 C 313.535156 81.210938 313.929688 79.917969 313.929688 78.234375 C 313.929688 77.167969 313.761719 76.242188 313.417969 75.445312 C 313.078125 74.644531 312.582031 74.035156 311.933594 73.597656 C 311.285156 73.164062 310.546875 72.941406 309.738281 72.941406 C 308.585938 72.941406 307.59375 73.363281 306.757812 74.203125 C 305.917969 75.042969 305.511719 76.449219 305.511719 78.414062 M 303.832031 78.386719 C 303.832031 76.214844 304.378906 74.519531 305.476562 73.289062 C 306.574219 72.0625 307.996094 71.445312 309.730469 71.445312 C 310.867188 71.445312 311.894531 71.734375 312.804688 72.3125 C 313.714844 72.886719 314.410156 73.691406 314.894531 74.726562 C 315.375 75.757812 315.609375 76.925781 315.609375 78.234375 C 315.609375 79.5625 315.355469 80.742188 314.851562 81.796875 C 314.351562 82.847656 313.632812 83.632812 312.710938 84.167969 C 311.785156 84.707031 310.789062 84.972656 309.714844 84.972656 C 308.558594 84.972656 307.519531 84.679688 306.609375 84.082031 C 305.699219 83.484375 305.003906 82.671875 304.535156 81.648438 C 304.066406 80.621094 303.832031 79.527344 303.832031 78.382812" stroke-linecap="round" />
</g>
		<g transform="matrix(1.33 0 0 1.33 162.94 36.82)" clip-path="url(#CLIPPATH_70)"  >
<clipPath id="CLIPPATH_70" >
	<rect transform="matrix(1 0 0 1 -122.22 -27.71)" id="fbb6a0c7f4" clip-path="url(#undefined)" x="-187.5" y="-50.5" rx="0" ry="0" width="375" height="101" />
</clipPath>
<path style="stroke: none; stroke-width: 1; stroke-dasharray: none; stroke-linecap: butt; stroke-dashoffset: 0; stroke-linejoin: miter; stroke-miterlimit: 4; fill: rgb(255,255,255); fill-rule: nonzero; opacity: 1;" vector-effect="non-scaling-stroke"  transform=" translate(-309.72, -78.21)" d="M 305.519531 78.421875 C 305.519531 79.996094 305.917969 81.238281 306.714844 82.144531 C 307.511719 83.050781 308.519531 83.503906 309.714844 83.503906 C 310.941406 83.503906 311.953125 83.050781 312.742188 82.128906 C 313.535156 81.210938 313.929688 79.917969 313.929688 78.234375 C 313.929688 77.167969 313.761719 76.242188 313.417969 75.445312 C 313.078125 74.644531 312.582031 74.035156 311.933594 73.597656 C 311.285156 73.164062 310.546875 72.941406 309.738281 72.941406 C 308.585938 72.941406 307.59375 73.363281 306.757812 74.203125 C 305.917969 75.042969 305.511719 76.449219 305.511719 78.414062 M 303.832031 78.386719 C 303.832031 76.214844 304.378906 74.519531 305.476562 73.289062 C 306.574219 72.0625 307.996094 71.445312 309.730469 71.445312 C 310.867188 71.445312 311.894531 71.734375 312.804688 72.3125 C 313.714844 72.886719 314.410156 73.691406 314.894531 74.726562 C 315.375 75.757812 315.609375 76.925781 315.609375 78.234375 C 315.609375 79.5625 315.355469 80.742188 314.851562 81.796875 C 314.351562 82.847656 313.632812 83.632812 312.710938 84.167969 C 311.785156 84.707031 310.789062 84.972656 309.714844 84.972656 C 308.558594 84.972656 307.519531 84.679688 306.609375 84.082031 C 305.699219 83.484375 305.003906 82.671875 304.535156 81.648438 C 304.066406 80.621094 303.832031 79.527344 303.832031 78.382812" stroke-linecap="round" />
</g>
		<g transform="matrix(1.33 0 0 1.33 180.97 36.85)" clip-path="url(#CLIPPATH_71)"  >
<clipPath id="CLIPPATH_71" >
	<rect transform="matrix(1 0 0 1 -135.74 -27.73)" id="6" clip-path="url(#undefined)" x="-187.5" y="-50.5" rx="0" ry="0" width="375" height="101" />
</clipPath>
<path style="stroke: none; stroke-width: 1; stroke-dasharray: none; stroke-linecap: butt; stroke-dashoffset: 0; stroke-linejoin: miter; stroke-miterlimit: 4; fill: rgb(255,255,255); fill-rule: nonzero; opacity: 1;" vector-effect="non-scaling-stroke"  transform=" translate(-323.24, -78.23)" d="M 318.386719 84.765625 L 318.386719 71.6875 L 320.0625 71.6875 L 326.53125 81.957031 L 326.53125 71.6875 L 328.089844 71.6875 L 328.089844 84.757812 L 326.417969 84.757812 L 319.949219 74.484375 L 319.949219 84.757812 Z M 318.386719 84.765625" stroke-linecap="round" />
</g>
		<g transform="matrix(1.33 0 0 1.33 180.97 36.85)" clip-path="url(#CLIPPATH_72)"  >
<clipPath id="CLIPPATH_72" >
	<rect transform="matrix(1 0 0 1 -135.74 -27.73)" id="f6baea177b" clip-path="url(#undefined)" x="-187.5" y="-50.5" rx="0" ry="0" width="375" height="101" />
</clipPath>
<path style="stroke: none; stroke-width: 1; stroke-dasharray: none; stroke-linecap: butt; stroke-dashoffset: 0; stroke-linejoin: miter; stroke-miterlimit: 4; fill: rgb(255,255,255); fill-rule: nonzero; opacity: 1;" vector-effect="non-scaling-stroke"  transform=" translate(-323.24, -78.23)" d="M 318.386719 84.765625 L 318.386719 71.6875 L 320.0625 71.6875 L 326.53125 81.957031 L 326.53125 71.6875 L 328.089844 71.6875 L 328.089844 84.757812 L 326.417969 84.757812 L 319.949219 74.484375 L 319.949219 84.757812 Z M 318.386719 84.765625" stroke-linecap="round" />
</g>
		<g transform="matrix(1.33 0 0 1.33 197.81 36.85)" clip-path="url(#CLIPPATH_73)"  >
<clipPath id="CLIPPATH_73" >
	<rect transform="matrix(1 0 0 1 -148.37 -27.73)" id="ca9e6b14e4" clip-path="url(#undefined)" x="-187.5" y="-50.5" rx="0" ry="0" width="375" height="101" />
</clipPath>
<path style="stroke: none; stroke-width: 1; stroke-dasharray: none; stroke-linecap: butt; stroke-dashoffset: 0; stroke-linejoin: miter; stroke-miterlimit: 4; fill: rgb(255,255,255); fill-rule: nonzero; opacity: 1;" vector-effect="non-scaling-stroke"  transform=" translate(-335.87, -78.23)" d="M 330.964844 80.566406 L 332.503906 80.425781 C 332.578125 81.085938 332.746094 81.621094 333.011719 82.035156 C 333.28125 82.453125 333.691406 82.792969 334.253906 83.054688 C 334.816406 83.316406 335.445312 83.445312 336.140625 83.445312 C 336.761719 83.445312 337.3125 83.34375 337.789062 83.148438 C 338.261719 82.957031 338.617188 82.6875 338.851562 82.34375 C 339.085938 82.003906 339.199219 81.628906 339.199219 81.226562 C 339.199219 80.824219 339.085938 80.460938 338.867188 80.152344 C 338.644531 79.84375 338.269531 79.589844 337.761719 79.378906 C 337.433594 79.246094 336.703125 79.03125 335.570312 78.742188 C 334.441406 78.457031 333.648438 78.179688 333.195312 77.925781 C 332.605469 77.597656 332.167969 77.195312 331.882812 76.703125 C 331.59375 76.214844 331.445312 75.679688 331.445312 75.074219 C 331.445312 74.417969 331.621094 73.800781 331.976562 73.222656 C 332.332031 72.648438 332.847656 72.210938 333.523438 71.917969 C 334.199219 71.621094 334.957031 71.472656 335.777344 71.472656 C 336.691406 71.472656 337.5 71.628906 338.195312 71.941406 C 338.894531 72.257812 339.429688 72.714844 339.804688 73.316406 C 340.179688 73.921875 340.378906 74.613281 340.40625 75.375 L 338.847656 75.503906 C 338.765625 74.679688 338.476562 74.054688 337.996094 73.632812 C 337.511719 73.210938 336.796875 73.003906 335.847656 73.003906 C 334.863281 73.003906 334.144531 73.195312 333.691406 73.578125 C 333.234375 73.960938 333.011719 74.425781 333.011719 74.96875 C 333.011719 75.4375 333.175781 75.824219 333.488281 76.128906 C 333.804688 76.429688 334.621094 76.746094 335.945312 77.058594 C 337.273438 77.375 338.183594 77.65625 338.671875 77.890625 C 339.386719 78.242188 339.917969 78.683594 340.257812 79.226562 C 340.601562 79.769531 340.773438 80.386719 340.773438 81.085938 C 340.773438 81.78125 340.585938 82.4375 340.210938 83.050781 C 339.835938 83.660156 339.300781 84.140625 338.597656 84.484375 C 337.894531 84.828125 337.105469 84.996094 336.226562 84.996094 C 335.117188 84.996094 334.179688 84.820312 333.429688 84.476562 C 332.679688 84.136719 332.082031 83.613281 331.652344 82.921875 C 331.226562 82.230469 330.996094 81.445312 330.976562 80.574219" stroke-linecap="round" />
</g>
		<g transform="matrix(1.33 0 0 1.33 197.81 36.85)" clip-path="url(#CLIPPATH_74)"  >
<clipPath id="CLIPPATH_74" >
	<rect transform="matrix(1 0 0 1 -148.37 -27.73)" id="ba827ddf5e" clip-path="url(#undefined)" x="-187.5" y="-50.5" rx="0" ry="0" width="375" height="101" />
</clipPath>
<path style="stroke: none; stroke-width: 1; stroke-dasharray: none; stroke-linecap: butt; stroke-dashoffset: 0; stroke-linejoin: miter; stroke-miterlimit: 4; fill: rgb(255,255,255); fill-rule: nonzero; opacity: 1;" vector-effect="non-scaling-stroke"  transform=" translate(-335.87, -78.23)" d="M 330.964844 80.566406 L 332.503906 80.425781 C 332.578125 81.085938 332.746094 81.621094 333.011719 82.035156 C 333.28125 82.453125 333.691406 82.792969 334.253906 83.054688 C 334.816406 83.316406 335.445312 83.445312 336.140625 83.445312 C 336.761719 83.445312 337.3125 83.34375 337.789062 83.148438 C 338.261719 82.957031 338.617188 82.6875 338.851562 82.34375 C 339.085938 82.003906 339.199219 81.628906 339.199219 81.226562 C 339.199219 80.824219 339.085938 80.460938 338.867188 80.152344 C 338.644531 79.84375 338.269531 79.589844 337.761719 79.378906 C 337.433594 79.246094 336.703125 79.03125 335.570312 78.742188 C 334.441406 78.457031 333.648438 78.179688 333.195312 77.925781 C 332.605469 77.597656 332.167969 77.195312 331.882812 76.703125 C 331.59375 76.214844 331.445312 75.679688 331.445312 75.074219 C 331.445312 74.417969 331.621094 73.800781 331.976562 73.222656 C 332.332031 72.648438 332.847656 72.210938 333.523438 71.917969 C 334.199219 71.621094 334.957031 71.472656 335.777344 71.472656 C 336.691406 71.472656 337.5 71.628906 338.195312 71.941406 C 338.894531 72.257812 339.429688 72.714844 339.804688 73.316406 C 340.179688 73.921875 340.378906 74.613281 340.40625 75.375 L 338.847656 75.503906 C 338.765625 74.679688 338.476562 74.054688 337.996094 73.632812 C 337.511719 73.210938 336.796875 73.003906 335.847656 73.003906 C 334.863281 73.003906 334.144531 73.195312 333.691406 73.578125 C 333.234375 73.960938 333.011719 74.425781 333.011719 74.96875 C 333.011719 75.4375 333.175781 75.824219 333.488281 76.128906 C 333.804688 76.429688 334.621094 76.746094 335.945312 77.058594 C 337.273438 77.375 338.183594 77.65625 338.671875 77.890625 C 339.386719 78.242188 339.917969 78.683594 340.257812 79.226562 C 340.601562 79.769531 340.773438 80.386719 340.773438 81.085938 C 340.773438 81.78125 340.585938 82.4375 340.210938 83.050781 C 339.835938 83.660156 339.300781 84.140625 338.597656 84.484375 C 337.894531 84.828125 337.105469 84.996094 336.226562 84.996094 C 335.117188 84.996094 334.179688 84.820312 333.429688 84.476562 C 332.679688 84.136719 332.082031 83.613281 331.652344 82.921875 C 331.226562 82.230469 330.996094 81.445312 330.976562 80.574219" stroke-linecap="round" />
</g>
</g>
</g>
</svg>