<svg width="9" height="11" viewBox="0 0 9 11" fill="none" xmlns="http://www.w3.org/2000/svg">
<path d="M0.890996 3.19055C0.725707 2.14829 1.49532 1.20977 2.671 0.865393C2.87975 0.804289 3.10501 0.821653 3.30083 0.913943C3.49664 1.00623 3.64827 1.1665 3.72478 1.36204L4.10177 2.32463C4.16239 2.47947 4.17325 2.6481 4.13298 2.80889C4.09271 2.96967 4.00314 3.11529 3.87575 3.22706L2.7543 4.21081C2.69899 4.25941 2.65778 4.32087 2.63466 4.38921C2.61155 4.45756 2.60733 4.53046 2.62241 4.60082L2.63239 4.64398L2.66016 4.75227C2.68488 4.84355 2.72219 4.97217 2.77469 5.12569C2.87881 5.43064 3.04496 5.84057 3.29225 6.25009C3.53953 6.65961 3.82759 7.00232 4.05145 7.2409C4.16804 7.36511 4.2899 7.48471 4.41674 7.59938L4.45144 7.63008C4.50754 7.67759 4.57554 7.7104 4.64883 7.72531C4.72212 7.74021 4.7982 7.73671 4.86965 7.71514L6.32125 7.27824C6.48618 7.22865 6.66283 7.22732 6.82856 7.27441C6.99428 7.3215 7.14152 7.41487 7.25138 7.54253L7.93814 8.33999C8.22446 8.67192 8.19063 9.15985 7.86135 9.45319C6.96158 10.2552 5.7243 10.4199 4.86358 9.75774C3.80857 8.94394 2.91916 7.9514 2.23977 6.82972C1.55478 5.70878 1.09718 4.47424 0.890996 3.19096V3.19055ZM3.53129 4.65518L4.46229 3.83864C4.71707 3.6151 4.89621 3.32386 4.97676 3.00229C5.0573 2.68071 5.03556 2.34346 4.91434 2.03378L4.53691 1.07119C4.38293 0.677907 4.07792 0.355592 3.68405 0.169947C3.29019 -0.0156976 2.83712 -0.0506961 2.41721 0.0720861C0.957372 0.499443 -0.214838 1.75123 0.0333133 3.31502C0.255867 4.70166 0.749965 6.03569 1.48968 7.24712C2.22245 8.45673 3.18172 9.52704 4.31956 10.4046C5.6102 11.3962 7.33424 11.0581 8.45309 10.0602C8.77323 9.77483 8.9675 9.38342 8.99628 8.96578C9.02506 8.54814 8.88618 8.13573 8.60797 7.81264L7.92122 7.01518C7.70146 6.75977 7.40691 6.57299 7.07537 6.47881C6.74383 6.38462 6.39043 6.38733 6.06052 6.48659L4.85577 6.84922C4.80184 6.79618 4.74905 6.74209 4.69742 6.68699C4.44983 6.42501 4.23077 6.13961 4.04364 5.83518C3.86147 5.52792 3.71248 5.20373 3.59896 4.86761C3.57489 4.79725 3.55233 4.72642 3.53129 4.65518Z" fill="white"/>
</svg>
