<svg width="26" height="16" viewBox="0 0 26 16" fill="none" xmlns="http://www.w3.org/2000/svg">
<path fill-rule="evenodd" clip-rule="evenodd" d="M25.169 7.43842C25.3097 7.57907 25.3887 7.76984 25.3887 7.96875C25.3887 8.16766 25.3097 8.35843 25.169 8.49908L18.8051 14.863C18.6644 15.0037 18.4737 15.0827 18.2747 15.0827C18.0758 15.0827 17.8851 15.0037 17.7444 14.863C17.6038 14.7224 17.5247 14.5316 17.5247 14.3327C17.5247 14.1338 17.6038 13.943 17.7444 13.8024L22.8282 8.71864L1.30419 8.7197C1.20557 8.7197 1.10792 8.70027 1.01681 8.66253C0.925703 8.6248 0.842919 8.56948 0.773187 8.49975C0.703455 8.43002 0.648141 8.34723 0.610403 8.25613C0.572664 8.16502 0.55324 8.06737 0.55324 7.96875C0.55324 7.87013 0.572664 7.77248 0.610403 7.68137C0.648141 7.59027 0.703455 7.50748 0.773187 7.43775C0.842919 7.36802 0.925703 7.3127 1.01681 7.27497C1.10792 7.23723 1.20557 7.2178 1.30419 7.2178L22.8282 7.21886L17.7444 2.13512C17.6038 1.99447 17.5247 1.8037 17.5247 1.60479C17.5247 1.40588 17.6038 1.21511 17.7444 1.07446C17.8851 0.933808 18.0758 0.854791 18.2747 0.85479C18.4737 0.85479 18.6644 0.933807 18.8051 1.07446L25.169 7.43842Z" fill="white" fill-opacity="0.8"/>
</svg>
