<svg width="31" height="22" viewBox="0 0 31 22" fill="none" xmlns="http://www.w3.org/2000/svg">
<path d="M15.2482 4.54545C14.687 4.55487 14.13 4.65054 13.5942 4.82955C13.8421 5.29734 13.974 5.82552 13.9775 6.36364C13.9775 6.78148 13.9008 7.19523 13.7518 7.58127C13.6028 7.9673 13.3844 8.31806 13.1091 8.61352C12.8338 8.90898 12.5069 9.14335 12.1472 9.30325C11.7875 9.46315 11.4019 9.54545 11.0126 9.54545C10.5111 9.54172 10.019 9.40009 9.58306 9.13409C9.23914 10.4141 9.27922 11.7778 9.69763 13.032C10.116 14.2861 10.8915 15.3673 11.9143 16.1222C12.9371 16.8771 14.1553 17.2675 15.3963 17.2382C16.6374 17.2089 17.8383 16.7612 18.8291 15.9587C19.8199 15.1562 20.5503 14.0394 20.9169 12.7667C21.2834 11.4939 21.2675 10.1297 20.8713 8.8672C20.4752 7.6047 19.719 6.50795 18.7098 5.7323C17.7006 4.95666 16.4895 4.54143 15.2482 4.54545ZM30.3122 10.0795C27.441 4.06761 21.7568 0 15.2482 0C8.73964 0 3.05385 4.07046 0.18422 10.0801C0.0631039 10.3372 0 10.6213 0 10.9094C0 11.1975 0.0631039 11.4815 0.18422 11.7386C3.05544 17.7506 8.73964 21.8182 15.2482 21.8182C21.7568 21.8182 27.4425 17.7477 30.3122 11.7381C30.4333 11.481 30.4964 11.1969 30.4964 10.9088C30.4964 10.6207 30.4333 10.3367 30.3122 10.0795ZM15.2482 19.0909C10.0251 19.0909 5.23678 15.9659 2.65094 10.9091C5.23678 5.85227 10.0246 2.72727 15.2482 2.72727C20.4718 2.72727 25.2596 5.85227 27.8454 10.9091C25.2601 15.9659 20.4718 19.0909 15.2482 19.0909Z" fill="#262224"/>
</svg>
